<?xml version='1.0' encoding='utf-8'?>
<svg xmlns="http://www.w3.org/2000/svg" baseProfile="full" height="200.83mm" version="1.1" viewBox="278.1169738769531 40.0 482.3604431152344 281.15809965775225" width="344.54mm"><defs /><path d="M0,0 M461.672607421875,49.12593078613281 L461.5885314941406,49.55607223510742 L461.4703063964844,50.41651153564453 L461.3436584472656,51.747554779052734 L461.24615478515625,53.43627166748047 L461.2091979980469,55.38719177246094 L461.22412109375,57.46870803833008 L461.2878112792969,59.544532775878906 L461.38385009765625,61.447174072265625 L461.4795227050781,63.017364501953125 L461.54998779296875,64.13440704345703 L461.5974426269531,64.77546691894531 L461.6171569824219,65.04145812988281 M456.0802917480469,50.25120544433594 L456.1307067871094,49.91600799560547 L456.4234313964844,49.45943069458008 L457.08941650390625,49.00552749633789 L458.21832275390625,48.72865676879883 L459.76202392578125,48.66217041015625 L461.6181335449219,48.833961486816406 L463.68145751953125,49.263206481933594 L465.8426818847656,49.993228912353516 L467.9450378417969,51.02880859375 L469.85394287109375,52.34868240356445 L471.3969421386719,53.89166259765625 L472.43963623046875,55.61085891723633 L472.8743896484375,57.4296875 L472.6387023925781,59.27150344848633 L471.73443603515625,61.03508377075195 L470.2398986816406,62.634178161621094 L468.294921875,63.96941375732422 L466.1067810058594,64.98524475097656 L463.89068603515625,65.63277435302734 L461.8783264160156,65.8296890258789 L460.28155517578125,65.5460205078125 L459.2084045410156,64.84822845458984 L458.64373779296875,64.072265625 L458.4476318359375,63.48340606689453 M477.60382080078125,61.398075103759766 L478.1734313964844,61.15275955200195 L479.0934753417969,60.6505126953125 L480.2406005859375,59.876583099365234 L481.328125,58.88844299316406 L482.229736328125,57.767669677734375 L482.8333740234375,56.64476013183594 L483.1097412109375,55.63513946533203 L483.01702880859375,54.84370040893555 L482.57220458984375,54.38054656982422 L481.7900390625,54.314781188964844 L480.7502746582031,54.72511672973633 L479.56103515625,55.655826568603516 L478.40069580078125,57.057796478271484 L477.46002197265625,58.80039596557617 L476.9119567871094,60.69365692138672 L476.9720458984375,62.51194381713867 L477.73358154296875,64.05836486816406 L479.123046875,65.20118713378906 L480.5675048828125,65.88166046142578 L481.63641357421875,66.17977905273438 M493.452392578125,56.28776168823242 L493.2358093261719,56.009464263916016 L492.81256103515625,55.66279602050781 L492.1355895996094,55.41239547729492 L491.2205810546875,55.46964645385742 L490.07781982421875,55.9090690612793 L488.82611083984375,56.762393951416016 L487.6185302734375,57.95796203613281 L486.64923095703125,59.39535140991211 L486.076171875,60.91067886352539 L485.98565673828125,62.29963302612305 L486.3852844238281,63.37102508544922 L487.2327880859375,63.98050308227539 L488.42584228515625,64.02749633789062 L489.8376159667969,63.49532699584961 L491.3350830078125,62.44013214111328 L492.7684326171875,60.99177932739258 L493.985595703125,59.3486213684082 L494.87835693359375,57.750640869140625 L495.40203857421875,56.40357208251953 L495.599853515625,55.42312240600586 L495.58123779296875,54.86351776123047 L495.4645690917969,54.72632598876953 L495.31634521484375,55.01767349243164 L495.172119140625,55.78152847290039 L495.0511474609375,57.018310546875 L494.9949951171875,58.60923385620117 L495.0423583984375,60.379112243652344 L495.2856750488281,62.076759338378906 L495.76123046875,63.4718132019043 L496.45538330078125,64.43877410888672 L497.1312561035156,64.97162628173828 L497.61968994140625,65.16954040527344 M501.19415283203125,56.10758972167969 L501.1161193847656,56.61069107055664 L501.0015869140625,57.57080841064453 L500.88922119140625,58.941078186035156 L500.83282470703125,60.478904724121094 L500.85467529296875,61.959449768066406 L500.9744873046875,63.18698501586914 L501.1640625,64.04002380371094 L501.37261962890625,64.43743133544922 L501.5478515625,64.31344604492188 L501.643310546875,63.626068115234375 L501.6651916503906,62.41297149658203 L501.66754150390625,60.82389450073242 L501.71142578125,59.06858444213867 L501.8629455566406,57.33772277832031 L502.16143798828125,55.758052825927734 L502.70465087890625,54.387149810791016 L503.560546875,53.27996826171875 L504.7237243652344,52.47331237792969 L505.83074951171875,51.99174880981445 L506.624267578125,51.779380798339844 M521.4203491210938,46.20549774169922 L521.4895629882812,46.416255950927734 L521.58935546875,46.95471954345703 L521.6864013671875,47.958526611328125 L521.7454223632812,49.47943115234375 L521.760009765625,51.49884033203125 L521.7356567382812,53.909385681152344 L521.6976928710938,56.528564453125 L521.6902465820312,59.11826705932617 L521.7420043945312,61.41276931762695 L521.8848876953125,63.19755172729492 L522.0565795898438,64.32255554199219 L522.1954345703125,64.85591888427734 M517.413818359375,47.36869812011719 L517.6609497070312,47.02812957763672 L518.27197265625,46.48544692993164 L519.353271484375,45.84791946411133 L520.883056640625,45.31502914428711 L522.7505493164062,45.0 L524.77685546875,45.00141143798828 L526.7574462890625,45.35271453857422 L528.494140625,46.03057098388672 L529.81591796875,46.983638763427734 L530.591552734375,48.135684967041016 L530.7499389648438,49.41402816772461 L530.25048828125,50.76035690307617 L529.1942749023438,52.09087371826172 L527.8035278320312,53.305171966552734 L526.5604858398438,54.20223617553711 L525.7517700195312,54.71769332885742 M535.710693359375,54.901100158691406 L535.5156860351562,54.67716598510742 L535.1375732421875,54.33443832397461 L534.5587158203125,53.978031158447266 L533.7886962890625,53.79849624633789 L532.8463745117188,53.9445686340332 L531.8006591796875,54.53324890136719 L530.7689819335938,55.58152770996094 L529.9315795898438,56.99739456176758 L529.4749145507812,58.59035873413086 L529.5133056640625,60.097145080566406 L530.1064453125,61.26226043701172 L531.2037353515625,61.908599853515625 L532.6683349609375,61.946102142333984 L534.3052978515625,61.37221145629883 L535.8947143554688,60.281070709228516 L537.2068481445312,58.82485580444336 L538.0657348632812,57.212581634521484 L538.3435668945312,55.67454147338867 L538.0418090820312,54.406917572021484 L537.2819213867188,53.54242706298828 L536.3108520507812,53.12177658081055 L535.3856201171875,53.088218688964844 L534.7357177734375,53.24688720703125 L534.401123046875,53.42866516113281 M545.5447998046875,53.380916595458984 L545.2125244140625,53.17298126220703 L544.6264038085938,52.950374603271484 L543.7992553710938,52.867774963378906 L542.8435668945312,53.13882827758789 L541.833740234375,53.85336685180664 L540.8681640625,55.02653884887695 L540.0799560546875,56.563926696777344 L539.6365356445312,58.30207061767578 L539.6561889648438,59.995819091796875 L540.1885375976562,61.407562255859375 L541.201904296875,62.32307434082031 L542.5552368164062,62.60593032836914 L544.0672607421875,62.215858459472656 L545.5400390625,61.23572540283203 L546.7806396484375,59.831417083740234 L547.6204223632812,58.240299224853516 L547.9830932617188,56.683475494384766 L547.8743896484375,55.33863067626953 L547.3866577148438,54.292850494384766 L546.7046508789062,53.61939239501953 L546.0376586914062,53.32808303833008 L545.5460205078125,53.391414642333984 L545.283935546875,53.621490478515625 L545.2080078125,53.85856628417969 M553.136962890625,53.87017059326172 L553.098388671875,53.827301025390625 L553.06591796875,53.88351821899414 L553.0667114257812,54.1711311340332 L553.1179809570312,54.82414627075195 L553.20166015625,55.88775634765625 L553.3068237304688,57.32209777832031 L553.4247436523438,59.050445556640625 L553.5494384765625,60.98235321044922 L553.6704711914062,63.01293182373047 L553.7378540039062,65.04752349853516 L553.6886596679688,66.99900817871094 L553.4594116210938,68.76136779785156 L553.0025634765625,70.244873046875 L552.299560546875,71.38032531738281 L551.3882446289062,72.11431121826172 L550.3104248046875,72.3646469116211 L549.1724853515625,72.13191223144531 L548.0914916992188,71.47855377197266 L547.2752685546875,70.73982238769531 L546.7993774414062,70.17713928222656 M554.75537109375,49.56364822387695 L554.8008422851562,49.59669494628906 L554.8750610351562,49.691402435302734 L554.9512939453125,49.81047058105469 L555.0029296875,49.91660690307617 M562.852783203125,55.41835403442383 L562.6649169921875,55.10903549194336 L562.278076171875,54.62630081176758 L561.6530151367188,54.097843170166016 L560.8016967773438,53.74470901489258 L559.7554931640625,53.72213363647461 L558.57861328125,54.10140609741211 L557.3699340820312,54.86606979370117 L556.2689819335938,55.937339782714844 L555.41552734375,57.174537658691406 L554.9329223632812,58.404518127441406 L554.8983154296875,59.471744537353516 L555.3189697265625,60.219425201416016 L556.1333618164062,60.54505920410156 L557.2501220703125,60.40071105957031 L558.53955078125,59.778770446777344 L559.881103515625,58.741329193115234 L561.1595458984375,57.41840362548828 L562.2871704101562,55.96381378173828 L563.1873779296875,54.56751251220703 L563.815185546875,53.38850784301758 L564.173828125,52.50669860839844 L564.3043212890625,51.96306610107422 L564.279052734375,51.774845123291016 L564.1785888671875,51.959754943847656 L564.0419921875,52.57707595825195 L563.8983154296875,53.64679718017578 L563.806884765625,55.08921432495117 L563.84716796875,56.781681060791016 L564.07177734375,58.517486572265625 L564.49169921875,60.09295654296875 L564.9295654296875,61.24091720581055 L565.2513427734375,61.89065170288086 M573.4964599609375,61.11884689331055 L573.5042724609375,61.43634796142578 L573.429931640625,62.126956939697266 L573.20166015625,63.23432540893555 L572.7202758789062,64.68817901611328 L572.0067749023438,66.33328247070312 L571.1394653320312,67.97216033935547 L570.3841552734375,69.24665832519531 L569.8907470703125,70.01107025146484 " fill="none" stroke="black" stroke-linecap="round" stroke-width="2" /><path d="M 0.0000 -14.4352 M 287.8931 98.3818 L 287.9816 98.4400 L 288.1961 98.7283 L 288.5467 99.3950 L 288.9918 100.5338 L 289.4591 102.1345 L 289.8800 104.1367 L 290.1979 106.4478 L 290.3814 108.9567 L 290.3684 111.5088 L 290.1245 113.9293 L 289.6059 116.0488 L 288.8029 117.7392 L 287.7076 118.9159 L 286.3424 119.5264 L 284.7411 119.5659 L 283.0269 119.0154 L 281.3714 117.9596 L 279.9649 116.5727 L 279.0052 115.3186 L 278.5110 114.4767 M 291.5902 107.8059 L 291.4781 108.4565 L 291.3364 109.6033 L 291.2335 111.1586 L 291.2793 112.8346 L 291.5169 114.4359 L 291.9733 115.7775 L 292.6406 116.7247 L 293.4769 117.1502 L 294.4380 116.9890 L 295.5041 116.2344 L 296.6215 114.9650 L 297.7308 113.3479 L 298.7473 111.6200 L 299.5521 110.0097 L 300.0877 108.7021 L 300.3726 107.8148 L 300.4561 107.4221 L 300.4212 107.5773 L 300.3230 108.3237 L 300.1924 109.6806 L 300.0892 111.4932 L 300.0640 113.4956 L 300.0966 115.1441 L 300.1593 116.1600 M 312.1746 107.9877 L 312.0386 107.6412 L 311.6869 107.1418 L 311.0373 106.6414 L 310.0743 106.3618 L 308.8819 106.3691 L 307.6340 106.6645 L 306.5461 107.1654 L 305.8476 107.8026 L 305.6938 108.5213 L 306.1362 109.2835 L 307.1380 110.0638 L 308.5698 110.8538 L 310.2240 111.6419 L 311.8732 112.4193 L 313.2787 113.1647 L 314.2426 113.8585 L 314.6405 114.4882 L 314.4111 115.0404 L 313.5725 115.4991 L 312.2384 115.8487 L 310.5841 116.0666 L 308.8333 116.1537 L 307.2123 116.1395 L 305.9397 116.0025 L 305.1593 115.7263 L 304.9130 115.3094 L 305.0016 114.8885 L 305.2028 114.5726 M 319.2325 100.0548 L 319.2803 100.2622 L 319.3586 100.7439 L 319.4590 101.5738 L 319.5566 102.7415 L 319.6455 104.1993 L 319.7030 105.8948 L 319.7268 107.7603 L 319.6990 109.7007 L 319.6445 111.6033 L 319.5987 113.3314 L 319.5995 114.7679 L 319.6567 115.8001 L 319.7475 116.3597 L 319.8289 116.4641 L 319.8825 116.3127 L 319.9059 116.1005 M 316.8759 109.4536 L 317.0996 109.3237 L 317.6637 109.1218 L 318.6506 108.8784 L 320.0685 108.6524 L 321.7728 108.4533 L 323.5583 108.2959 L 324.9905 108.1851 L 325.8730 108.1255 M 339.7204 99.3979 L 339.7404 99.6320 L 339.7017 100.1522 L 339.5680 100.9975 L 339.3427 102.0906 L 339.1056 103.2933 L 339.0077 104.4422 L 339.0406 105.3018 L 339.1430 105.7977 M 342.9370 98.9162 L 342.8904 99.1311 L 342.7969 99.6492 L 342.6727 100.5343 L 342.5688 101.7586 L 342.5317 103.1768 L 342.5698 104.6001 L 342.6413 105.7049 L 342.7039 106.3620 M 351.7534 107.8734 L 351.7861 107.9799 L 351.8472 108.3631 L 351.9094 109.1919 L 351.9257 110.5505 L 351.8620 112.4044 L 351.7097 114.6312 L 351.4960 117.0726 L 351.2705 119.4989 L 351.0688 121.6694 L 350.9222 123.3811 L 350.8356 124.5035 L 350.7899 124.9694 L 350.7658 124.7966 L 350.7572 123.9777 L 350.7766 122.5173 L 350.8874 120.5278 L 351.1555 118.1791 L 351.6414 115.6685 L 352.4069 113.2229 L 353.4749 111.0104 L 354.8098 109.1648 L 356.3503 107.8302 L 357.9941 107.0954 L 359.6110 106.9953 L 361.0857 107.4991 L 362.2888 108.4977 L 363.0991 109.8439 L 363.4391 111.3664 L 363.2721 112.8841 L 362.6323 114.2512 L 361.6032 115.3555 L 360.2810 116.1073 L 358.8336 116.4931 L 357.4474 116.5532 L 356.3985 116.4395 L 355.7991 116.2961 M 370.0598 109.8350 L 369.9263 109.5720 L 369.5967 109.2074 L 369.0125 108.8783 L 368.1747 108.7830 L 367.1304 109.0150 L 365.9936 109.6209 L 364.9001 110.5524 L 364.0405 111.7196 L 363.5922 112.9800 L 363.6698 114.1551 L 364.2924 115.0827 L 365.3879 115.6485 L 366.7928 115.7802 L 368.3374 115.4673 L 369.8254 114.7479 L 371.0841 113.7108 L 371.9774 112.4933 L 372.4113 111.2451 L 372.3698 110.1083 L 371.9118 109.1897 L 371.1811 108.5484 L 370.3765 108.1976 L 369.7408 108.0681 L 369.3698 108.0600 M 377.2291 107.3282 L 377.0321 107.7021 L 376.7001 108.5133 L 376.2637 109.8552 L 375.8094 111.6940 L 375.3611 113.9740 L 374.9291 116.5613 L 374.5094 119.2688 L 374.1394 121.8366 L 373.8445 124.0089 L 373.6608 125.5918 L 373.5850 126.4993 L 373.5937 126.7232 L 373.6502 126.2887 L 373.7787 125.2127 L 373.9725 123.5704 L 374.2535 121.4963 L 374.6325 119.1778 L 375.1321 116.8082 L 375.7829 114.5445 L 376.6495 112.4930 L 377.7309 110.7567 L 378.9962 109.4280 L 380.3582 108.5939 L 381.6960 108.2960 L 382.8968 108.5266 L 383.8600 109.2196 L 384.4821 110.2693 L 384.6763 111.5383 L 384.3878 112.8827 L 383.6049 114.1542 L 382.4109 115.2508 L 380.9822 116.0569 L 379.5768 116.5086 L 378.4393 116.5968 L 377.7269 116.4723 L 377.4095 116.2898 M 388.0163 110.0441 L 387.9863 110.3226 L 387.9058 110.9640 L 387.7688 112.0754 L 387.5721 113.6410 L 387.3245 115.5903 L 387.0292 117.7668 L 386.7026 119.9493 L 386.3932 121.9077 L 386.1644 123.4521 L 386.0366 124.4352 L 385.9903 124.7961 L 385.9627 124.5291 L 385.9104 123.6442 L 385.8510 122.2063 L 385.8487 120.3499 L 385.9718 118.2414 L 386.3028 116.0717 L 386.8801 114.0104 L 387.7275 112.1816 L 388.8384 110.6852 L 390.1690 109.5982 L 391.6225 108.9720 L 393.1075 108.8293 L 394.4831 109.1515 L 395.6132 109.8743 L 396.3713 110.8901 L 396.6837 112.0589 L 396.5188 113.2341 L 395.9138 114.2908 L 394.9197 115.1432 L 393.6311 115.7365 L 392.1951 116.0271 L 390.8240 116.0219 L 389.7135 115.7704 L 389.0085 115.4493 L 388.6809 115.1971 M 400.7928 108.9134 L 400.7551 109.1501 L 400.6536 109.6695 L 400.4628 110.5153 L 400.2222 111.6487 L 400.0129 112.9521 L 399.8977 114.2582 L 399.8771 115.2756 L 399.9139 115.8814 M 400.8169 102.2642 L 400.8533 102.1274 L 400.9594 102.0476 L 401.0931 102.0402 L 401.2122 102.1205 M 405.7244 109.6641 L 405.6975 110.0930 L 405.6236 110.9193 L 405.4836 112.1085 L 405.2853 113.4397 L 405.0729 114.7030 L 404.9045 115.7146 L 404.8663 116.3478 L 405.0356 116.5139 L 405.4679 116.1680 L 406.1764 115.2997 L 407.1254 114.0017 L 408.2326 112.4651 L 409.4146 110.9287 L 410.5838 109.5969 L 411.6942 108.6163 L 412.7098 108.0489 L 413.6053 107.9288 L 414.3395 108.2703 L 414.8714 109.0685 L 415.1666 110.2745 L 415.2490 111.7390 L 415.1768 113.2417 L 415.0591 114.4214 L 414.9677 115.1199 M 424.4500 110.4959 L 424.4070 110.1850 L 424.2460 109.7359 L 423.8631 109.2758 L 423.1956 109.0088 L 422.2358 109.0353 L 421.0849 109.4092 L 419.9402 110.1118 L 418.9956 111.0522 L 418.4029 112.0868 L 418.2759 113.0467 L 418.6295 113.7908 L 419.4292 114.2248 L 420.6116 114.3170 L 422.0397 114.0703 L 423.5363 113.5517 L 424.9173 112.8500 L 426.0159 112.0720 L 426.7228 111.3090 L 427.0552 110.6354 L 427.0937 110.1034 L 426.9639 109.7841 L 426.7695 109.7510 L 426.5933 110.0697 L 426.4713 110.7743 L 426.4469 111.8520 L 426.5486 113.2495 L 426.8024 114.8910 L 427.1877 116.7142 L 427.6475 118.6405 L 428.0797 120.5976 L 428.3738 122.4998 L 428.4386 124.2648 L 428.2245 125.7986 L 427.6874 127.0525 L 426.8006 127.9941 L 425.4962 128.5862 L 423.8237 128.8225 L 421.9359 128.7461 L 420.3382 128.5215 L 419.3134 128.3026 M 435.0127 90.5648 L 434.8873 91.0054 L 434.6833 91.8050 L 434.4500 92.9211 L 434.2419 94.1759 L 434.0720 95.4181 L 433.9232 96.5031 L 433.8030 97.2701 L 433.7162 97.6852 M 438.0234 91.2805 L 438.0258 91.3065 L 438.0061 91.5074 L 437.9542 91.9839 L 437.8604 92.8358 L 437.7407 94.0060 L 437.6053 95.3618 L 437.4903 96.5220 L 437.4144 97.2771 M 451.1342 107.2352 L 451.0222 107.7205 L 450.8905 108.6267 L 450.7837 109.9267 L 450.7438 111.4599 L 450.7418 113.0783 L 450.7374 114.5979 L 450.7208 115.7399 L 450.7012 116.4026 M 451.7007 100.6641 L 451.7413 100.7258 L 451.8780 100.9279 L 452.0554 101.1895 L 452.2182 101.4297 M 456.7812 108.2210 L 456.8016 108.2458 L 456.8159 108.4295 L 456.7963 108.8866 L 456.7215 109.6907 L 456.6101 110.8111 L 456.4860 112.1189 L 456.3721 113.4521 L 456.3004 114.6349 L 456.2888 115.5016 L 456.3609 115.9380 L 456.5722 115.8813 L 456.9821 115.3166 L 457.6237 114.3099 L 458.5012 112.9818 L 459.5595 111.4928 L 460.7217 110.0221 L 461.9186 108.7255 L 463.1082 107.7275 L 464.2469 107.1169 L 465.3048 106.9653 L 466.2098 107.3083 L 466.9182 108.1363 L 467.4006 109.3758 L 467.6892 110.9466 L 467.8384 112.6791 L 467.9382 114.3925 L 468.0073 115.7244 L 468.0602 116.5217 M 486.5812 99.6187 L 486.5718 99.6051 L 486.5463 99.7673 L 486.4723 100.2834 L 486.3029 101.2994 L 486.0096 102.8443 L 485.6194 104.8515 L 485.1964 107.1957 L 484.8295 109.7472 L 484.5850 112.2979 L 484.4771 114.6152 L 484.4649 116.3134 L 484.4954 117.2722 M 479.1877 108.4293 L 479.3224 108.3517 L 479.7597 108.2554 L 480.6484 108.1802 L 482.1060 108.1798 L 484.0511 108.2639 L 486.2693 108.4110 L 488.1550 108.5545 L 489.3671 108.6554 M 495.6331 108.9534 L 495.2742 108.8408 L 494.5768 108.7518 L 493.5376 108.8254 L 492.2996 109.2144 L 491.0218 109.9787 L 489.9159 111.0646 L 489.1751 112.3360 L 488.9802 113.6106 L 489.4263 114.7000 L 490.5079 115.4363 L 492.1000 115.7125 L 493.9973 115.4637 L 495.9130 114.7144 L 497.5845 113.5701 L 498.7950 112.1959 L 499.3999 110.7789 L 499.3589 109.4912 L 498.7632 108.4362 L 497.7775 107.7031 L 496.6509 107.3351 L 495.6320 107.3228 L 494.9232 107.4994 L 494.5558 107.7063 M 519.6757 107.3285 L 519.2303 107.0665 L 518.4293 106.7395 L 517.3217 106.4999 L 516.0946 106.5385 L 514.9119 106.8950 L 513.9539 107.5596 L 513.3915 108.4499 L 513.3317 109.4975 L 513.8022 110.6381 L 514.7283 111.8145 L 515.9476 112.9755 L 517.2267 114.0821 L 518.3320 115.0751 L 519.0541 115.9226 L 519.2590 116.5876 L 518.8910 117.0511 L 517.9453 117.3111 L 516.4921 117.3725 L 514.6785 117.2534 L 512.7507 116.9772 L 511.0036 116.5713 L 509.6714 116.0876 L 508.8690 115.6672 L 508.5230 115.3880 M 528.0063 108.9580 L 527.9340 108.7087 L 527.7341 108.3088 L 527.3322 107.8554 L 526.6681 107.5247 L 525.7185 107.4600 L 524.5266 107.7839 L 523.2100 108.5503 L 521.9459 109.7126 L 520.9487 111.1564 L 520.3852 112.6723 L 520.3557 114.0463 L 520.8605 115.0825 L 521.8373 115.6498 L 523.1701 115.6646 L 524.7377 115.1456 L 526.3768 114.1612 L 527.9164 112.8479 L 529.1929 111.3977 L 530.1071 110.0252 L 530.6273 108.8865 L 530.8188 108.0998 L 530.7637 107.7215 L 530.5430 107.7776 L 530.2289 108.3091 L 529.8824 109.3243 L 529.5677 110.7303 L 529.3784 112.3516 L 529.4108 113.9342 L 529.7094 115.2286 L 530.2649 116.0916 L 530.8434 116.5320 L 531.2692 116.6717 M 534.4086 108.0444 L 534.4949 108.2030 L 534.6981 108.5843 L 535.0425 109.2427 L 535.5284 110.1388 L 536.1342 111.1658 L 536.8378 112.1794 L 537.6594 113.0307 L 538.6514 113.5526 L 539.8195 113.6612 L 541.1272 113.3616 L 542.2470 112.9064 L 542.9766 112.5185 M 546.6887 109.2195 L 546.7886 109.2772 L 546.7645 109.5009 L 546.4149 110.0248 L 545.5491 110.9759 L 544.1440 112.4074 L 542.2704 114.2878 L 540.0918 116.5388 L 537.8644 118.9489 L 535.8450 121.2610 L 534.3864 123.0213 L 533.5806 124.0462 M 562.2863 100.8106 L 562.3189 100.8430 L 562.3654 101.1236 L 562.3894 101.8455 L 562.3298 103.1290 L 562.1246 104.9149 L 561.7651 107.0247 L 561.2938 109.2386 L 560.7808 111.3484 L 560.3074 113.1718 L 559.9268 114.5819 L 559.6638 115.4960 L 559.5409 115.8691 L 559.5807 115.6962 L 559.8123 115.0070 L 560.2806 113.8715 L 560.9896 112.4484 L 561.9201 110.9536 L 563.0104 109.5955 L 564.1664 108.5230 L 565.2987 107.8190 L 566.3469 107.5270 L 567.2443 107.6823 L 567.9552 108.2970 L 568.4354 109.3386 L 568.6604 110.7077 L 568.6532 112.2429 L 568.4772 113.7655 L 568.2615 115.0555 L 568.1437 115.9344 L 568.2026 116.3220 L 568.3658 116.3570 L 568.5391 116.2317 M 571.6713 113.5230 L 571.9250 113.5485 L 572.4733 113.5231 L 573.3412 113.3517 L 574.4658 112.9487 L 575.7403 112.2937 L 577.0251 111.4167 L 578.1833 110.3902 L 579.1071 109.3282 L 579.6719 108.3079 L 579.8145 107.4354 L 579.4832 106.8155 L 578.6782 106.5554 L 577.4725 106.7446 L 576.0397 107.4331 L 574.5923 108.5713 L 573.3844 110.0595 L 572.6244 111.7311 L 572.4563 113.4138 L 572.9207 114.9485 L 574.0687 116.1171 L 575.8068 116.7619 L 577.9337 116.8163 L 579.8127 116.5258 L 581.0636 116.1672 M 586.5889 100.3898 L 586.4399 100.5638 L 586.2006 101.0759 L 585.8857 102.0716 L 585.5482 103.5915 L 585.2518 105.5519 L 585.0364 107.7788 L 584.9644 110.0744 L 585.1045 112.2126 L 585.4493 113.9816 L 585.9387 115.2434 L 586.4055 115.9624 L 586.7239 116.2531 M 591.8895 99.9084 L 591.9038 99.7877 L 591.9036 99.7819 L 591.8519 100.0778 L 591.7087 100.8571 L 591.4552 102.1313 L 591.1300 103.8202 L 590.7693 105.7640 L 590.4752 107.8372 L 590.3286 109.8693 L 590.3725 111.7129 L 590.5176 113.0713 L 590.6771 113.8553 M 602.7040 109.8130 L 602.5108 109.3942 L 602.0814 108.7925 L 601.3324 108.1945 L 600.2480 107.8784 L 598.8662 107.9714 L 597.3215 108.5176 L 595.8302 109.4862 L 594.6513 110.7741 L 593.9985 112.2310 L 593.9923 113.6548 L 594.6277 114.8543 L 595.7990 115.6749 L 597.3308 116.0311 L 599.0380 115.8788 L 600.7295 115.2565 L 602.2336 114.2345 L 603.4100 112.9494 L 604.1694 111.5674 L 604.4709 110.2337 L 604.3357 109.0475 L 603.8427 108.0847 L 603.1241 107.3525 L 602.4603 106.8842 L 602.0162 106.6513 M 622.5463 109.8579 L 622.3309 109.3537 L 621.9201 108.5936 L 621.2748 107.7429 L 620.3970 107.0740 L 619.2478 106.6972 L 617.8385 106.7028 L 616.2522 107.1165 L 614.6410 107.9552 L 613.1906 109.1664 L 612.0818 110.6241 L 611.4229 112.1566 L 611.2628 113.5846 L 611.5881 114.7322 L 612.3306 115.4659 L 613.4010 115.6905 L 614.7092 115.3693 L 616.1395 114.5388 L 617.5837 113.3203 L 618.9133 111.8897 L 620.0127 110.4695 L 620.7961 109.2480 L 621.2595 108.3331 L 621.4485 107.7866 L 621.4408 107.6415 L 621.3137 107.9267 L 621.1253 108.6879 L 620.9025 109.8933 L 620.7123 111.4243 L 620.6101 113.0844 L 620.6211 114.6414 L 620.7028 115.7865 L 620.7958 116.4362 M 626.4530 107.1421 L 626.4417 107.4498 L 626.3738 108.1178 L 626.2269 109.1951 L 625.9998 110.5451 L 625.7501 111.9710 L 625.5559 113.2326 L 625.5022 114.1457 L 625.6670 114.5967 L 626.1040 114.5587 L 626.8282 114.0280 L 627.8246 113.0794 L 629.0540 111.8573 L 630.4336 110.5502 L 631.8843 109.3457 L 633.3102 108.4077 L 634.6327 107.8169 L 635.7806 107.6164 L 636.7194 107.8220 L 637.3877 108.4014 L 637.7797 109.3404 L 637.9159 110.5610 L 637.8758 111.9148 L 637.7704 113.0487 L 637.6896 113.7717 M 647.9135 111.7301 L 647.9171 111.3765 L 647.8318 110.7998 L 647.5729 110.0899 L 647.0585 109.4432 L 646.2531 108.9711 L 645.1892 108.7729 L 643.9498 108.8915 L 642.6608 109.3524 L 641.4891 110.1318 L 640.6012 111.1583 L 640.1348 112.2995 L 640.1720 113.3713 L 640.7384 114.1804 L 641.8057 114.5773 L 643.2723 114.4628 L 645.0101 113.8168 L 646.8531 112.6716 L 648.6363 111.0966 L 650.2335 109.2108 L 651.5702 107.1672 L 652.5922 105.1457 L 653.3139 103.3527 L 653.7635 101.9247 L 654.0012 100.9597 L 654.0776 100.5134 L 654.0286 100.6027 L 653.8696 101.2632 L 653.6069 102.5291 L 653.2779 104.3118 L 652.9302 106.4766 L 652.6199 108.8238 L 652.4391 111.1520 L 652.4601 113.2746 L 652.6776 115.0588 L 652.9694 116.2846 L 653.2089 116.9435 M 666.8491 100.8968 L 666.8488 101.0255 L 666.8259 101.4609 L 666.7443 102.3573 L 666.5521 103.7647 L 666.2215 105.6013 L 665.7596 107.7074 L 665.2286 109.8811 L 664.7677 111.9108 L 664.5145 113.5985 L 664.5649 114.7760 L 664.9525 115.3523 L 665.6476 115.3090 L 666.5860 114.7186 L 667.7178 113.7137 L 668.9745 112.4755 L 670.2870 111.1857 L 671.5797 110.0180 L 672.7741 109.0989 L 673.8083 108.5278 L 674.6508 108.3533 L 675.2662 108.6001 L 675.6349 109.2498 L 675.7500 110.2523 L 675.6658 111.5242 L 675.4841 112.9143 L 675.3250 114.2330 L 675.2430 115.2152 L 675.2344 115.7705 M 685.7073 108.7826 L 685.6011 108.4470 L 685.3082 107.9801 L 684.7432 107.5342 L 683.8687 107.3355 L 682.7274 107.4999 L 681.4086 108.0880 L 680.0615 109.0771 L 678.8748 110.4092 L 678.0295 111.9440 L 677.6682 113.4894 L 677.8923 114.8541 L 678.6880 115.8799 L 679.9562 116.4498 L 681.5362 116.5134 L 683.2177 116.0744 L 684.7967 115.1963 L 686.1182 113.9868 L 687.0544 112.5965 L 687.5444 111.1712 L 687.5619 109.8358 L 687.1668 108.6987 L 686.4920 107.8350 L 685.8353 107.2934 L 685.3815 107.0373 M 692.1812 108.0767 L 691.9982 108.6262 L 691.6865 109.6598 L 691.2538 111.1989 L 690.7507 113.1255 L 690.2038 115.3798 L 689.6498 117.8381 L 689.1431 120.3374 L 688.7332 122.6273 L 688.4332 124.4809 L 688.2369 125.7359 L 688.1470 126.3218 L 688.1355 126.2405 L 688.1913 125.5245 L 688.3154 124.2123 L 688.4961 122.3980 L 688.7654 120.2324 L 689.1696 117.9006 L 689.7440 115.5822 L 690.5107 113.4288 L 691.4819 111.5536 L 692.6230 110.0562 L 693.9097 109.0244 L 695.2807 108.5090 L 696.6744 108.5169 L 697.9914 109.0043 L 699.1303 109.8787 L 699.9647 111.0145 L 700.3610 112.2714 L 700.2302 113.5290 L 699.5652 114.6826 L 698.4471 115.6517 L 697.0786 116.3298 L 695.7189 116.6444 L 694.5771 116.5844 L 693.8284 116.3375 L 693.4639 116.0800 M 701.8224 114.2549 L 702.1890 114.3816 L 702.9183 114.4722 L 704.0127 114.4000 L 705.3381 114.0321 L 706.7814 113.3546 L 708.1827 112.4162 L 709.4242 111.3208 L 710.4058 110.1673 L 711.0424 109.0665 L 711.2649 108.1180 L 711.0479 107.4257 L 710.3362 107.0944 L 709.1719 107.2149 L 707.6953 107.8344 L 706.1599 108.9200 L 704.8506 110.3551 L 704.0375 111.9675 L 703.8693 113.5813 L 704.3956 115.0386 L 705.6825 116.1486 L 707.6586 116.7604 L 710.1036 116.8130 L 712.2837 116.5381 L 713.7455 116.1979 M 721.2726 100.9568 L 721.1086 100.3585 L 720.7863 99.5652 L 720.2693 98.8532 L 719.5760 98.5955 L 718.7328 98.9174 L 717.8063 99.8705 L 716.8829 101.4028 L 716.0594 103.4688 L 715.4030 105.9683 L 714.9644 108.7464 L 714.7633 111.6365 L 714.8037 114.4644 L 715.0525 117.0121 L 715.4395 119.1030 L 715.8077 120.5144 L 716.0618 121.2516 M 713.5867 110.6752 L 714.0154 110.6682 L 714.8951 110.6616 L 715.8967 110.6574 L 716.6906 110.6577 M 725.0917 108.4450 L 725.0128 108.7156 L 724.8419 109.3104 L 724.5620 110.2940 L 724.2275 111.6022 L 723.9509 113.1086 L 723.8792 114.6044 L 724.1320 115.8570 L 724.7689 116.6489 L 725.7574 116.8563 L 726.9891 116.4469 L 728.3387 115.5006 L 729.6736 114.1679 L 730.8773 112.6358 L 731.8636 111.1061 L 732.5903 109.7739 L 733.0290 108.7727 L 733.2211 108.1985 L 733.2330 108.1021 L 733.1371 108.5025 L 732.9929 109.4093 L 732.8420 110.7653 L 732.7142 112.4368 L 732.6638 114.2510 L 732.7808 115.9487 L 733.1196 117.2874 L 733.6700 118.1098 L 734.2241 118.4592 L 734.6254 118.5014 M 740.4613 100.0604 L 740.5646 100.4758 L 740.6605 101.3274 L 740.6693 102.6471 L 740.5225 104.3382 L 740.2520 106.3077 L 739.9277 108.4407 L 739.6327 110.6482 L 739.4542 112.7574 L 739.4400 114.5475 L 739.6084 115.8417 L 739.8463 116.5761 L 740.0519 116.8588 M 746.3411 98.9226 L 746.4157 99.0760 L 746.4940 99.5590 L 746.5049 100.5246 L 746.3693 102.0162 L 746.0552 103.9504 L 745.6094 106.1885 L 745.1319 108.5569 L 744.7498 110.8923 L 744.5621 113.0160 L 744.6043 114.7667 L 744.7601 115.9478 L 744.9214 116.5659 M 749.3473 108.7128 L 749.4641 109.0617 L 749.6836 109.7389 L 750.0095 110.7234 L 750.4218 111.8503 L 750.9520 112.9727 L 751.6357 113.9334 L 752.4919 114.6243 L 753.5519 114.9590 L 754.7966 114.8774 L 756.1605 114.3582 L 757.5414 113.4939 L 758.7719 112.4437 L 759.7054 111.4157 L 760.2786 110.5906 L 760.4774 110.0859 L 760.3513 109.9810 L 759.9294 110.3651 L 759.1957 111.3160 L 758.1594 112.8844 L 756.8566 115.0543 L 755.3446 117.7124 L 753.7389 120.6870 L 752.1467 123.7451 L 750.6685 126.6033 L 749.3916 128.9705 L 748.3748 130.6482 L 747.6960 131.5896 L 747.3402 131.9613" fill="none" stroke="black" stroke-linecap="round" stroke-width="2" /><path d="M 0.0000 -14.8385 M 291.9419 153.8362 L 291.9383 153.7992 L 291.9473 153.8228 L 291.9594 154.0410 L 291.9579 154.6260 L 291.9024 155.7022 L 291.7654 157.2649 L 291.5639 159.2201 L 291.3243 161.4137 L 291.0623 163.6564 L 290.8204 165.7569 L 290.6044 167.5317 L 290.4284 168.8444 L 290.3134 169.6248 L 290.2639 169.8635 L 290.2535 169.5618 L 290.3232 168.7396 L 290.5159 167.4437 L 290.9095 165.8278 L 291.5750 164.0930 L 292.5397 162.4566 L 293.7521 161.0872 L 295.1474 160.1223 L 296.6134 159.6324 L 298.0180 159.6736 L 299.2281 160.2435 L 300.1218 161.2688 L 300.6013 162.6188 L 300.6253 164.1457 L 300.1827 165.6704 L 299.2994 167.0445 L 298.0292 168.1484 L 296.4583 168.8767 L 294.7458 169.2049 L 293.1088 169.1957 L 291.8772 169.0229 L 291.1746 168.8457 M 303.8403 161.8997 L 303.8651 162.2097 L 303.9034 162.8580 L 303.9311 163.8820 L 303.9306 165.2041 L 303.9125 166.7133 L 303.8819 168.2236 L 303.8521 169.5502 L 303.8422 170.5445 L 303.8360 171.0725 L 303.8499 171.0645 L 303.9259 170.5074 L 304.0747 169.4119 L 304.3452 167.9207 L 304.7567 166.2303 L 305.2946 164.5554 L 305.9526 163.0981 L 306.7301 162.0082 L 307.5974 161.3438 L 308.5642 161.1175 L 309.6725 161.2742 L 310.9010 161.7126 L 312.1865 162.3038 L 313.2468 162.8325 L 313.9173 163.1820 M 317.5082 162.1803 L 317.3564 162.3345 L 317.0957 162.7557 L 316.7471 163.5577 L 316.3816 164.7586 L 316.0457 166.2807 L 315.7861 167.9457 L 315.6306 169.5549 L 315.6037 170.8302 L 315.7067 171.5646 L 315.9241 171.6685 L 316.1553 171.3987 L 316.3320 171.0373 M 317.7165 155.6996 L 317.8012 155.5027 L 317.9513 155.2934 L 318.1122 155.1360 L 318.2290 155.0946 M 329.8840 163.7689 L 329.6294 163.3962 L 329.0811 162.8858 L 328.1860 162.4198 L 327.0074 162.2735 L 325.6570 162.5573 L 324.2819 163.2865 L 323.0831 164.3751 L 322.2573 165.6581 L 321.9403 166.9180 L 322.1974 167.9490 L 322.9891 168.5818 L 324.1711 168.7108 L 325.5750 168.3100 L 327.0107 167.4121 L 328.2930 166.1477 L 329.2922 164.7208 L 329.9649 163.3669 L 330.3348 162.2777 L 330.5062 161.5948 L 330.5717 161.3893 L 330.5806 161.7278 L 330.5544 162.6462 L 330.5011 164.1359 L 330.4144 166.1019 L 330.3120 168.4158 L 330.1768 170.9093 L 329.9491 173.4061 L 329.5775 175.7164 L 329.0238 177.6625 L 328.2729 179.0925 L 327.3564 179.9546 L 326.3203 180.2065 L 325.2349 179.8904 L 324.2013 179.1206 L 323.4185 178.2849 L 322.9608 177.6560 M 335.6680 155.3516 L 335.6219 155.8222 L 335.5414 156.7980 L 335.4193 158.3040 L 335.2593 160.1721 L 335.0626 162.2089 L 334.8665 164.1947 L 334.6974 165.9233 L 334.6055 167.2611 L 334.6227 168.0867 L 334.7603 168.3088 L 335.0399 167.9203 L 335.4962 166.9751 L 336.1274 165.6056 L 336.9439 164.0493 L 337.9188 162.5391 L 339.0056 161.2547 L 340.1669 160.3361 L 341.3395 159.8697 L 342.4274 159.9074 L 343.3377 160.4994 L 343.9603 161.6230 L 344.2684 163.1813 L 344.3099 165.0009 L 344.1896 166.8688 L 344.0366 168.5452 L 343.9491 169.8626 L 343.9266 170.6952 L 343.9482 171.0929 M 350.1267 152.0655 L 350.2010 152.3966 L 350.2868 153.1606 L 350.3382 154.4515 L 350.3079 156.2230 L 350.1901 158.3624 L 349.9983 160.7048 L 349.7912 163.0758 L 349.6165 165.2631 L 349.5116 167.0554 L 349.4953 168.3086 L 349.5294 169.0037 L 349.5684 169.2714 M 346.9691 162.9341 L 347.1928 162.9031 L 347.7354 162.8606 L 348.6729 162.8124 L 349.9737 162.7763 L 351.5367 162.7410 L 353.2344 162.6771 L 354.9860 162.5549 L 356.6978 162.3455 L 358.2669 162.0240 L 359.5767 161.5925 L 360.4968 161.0578 L 360.9613 160.4536 L 360.9879 159.8213 L 360.6030 159.2357 L 359.8723 158.7835 L 358.8745 158.5720 L 357.6908 158.6897 L 356.4538 159.1996 L 355.3195 160.0838 L 354.4320 161.2912 L 353.9212 162.7070 L 353.8888 164.2044 L 354.3582 165.6198 L 355.3723 166.7604 L 356.8552 167.4715 L 358.6503 167.7107 L 360.2271 167.6395 L 361.2773 167.4676 M 364.5883 159.3060 L 364.5432 159.5130 L 364.4746 160.0392 L 364.3994 160.9667 L 364.3520 162.2472 L 364.3424 163.6965 L 364.3795 165.1050 L 364.4595 166.2718 L 364.5820 167.0505 L 364.7693 167.3538 L 365.0529 167.1397 L 365.4542 166.3929 L 365.9985 165.2013 L 366.6843 163.7219 L 367.4842 162.1676 L 368.3818 160.7470 L 369.3442 159.6077 L 370.3393 158.8351 L 371.3349 158.4829 L 372.2710 158.5877 L 373.0760 159.1705 L 373.6956 160.2068 L 374.1087 161.6066 L 374.3379 163.2156 L 374.4734 164.8459 L 374.6006 166.3050 L 374.7841 167.4479 L 374.9786 168.1730 L 375.1345 168.5236 M 388.0748 159.6826 L 388.1037 159.9685 L 388.1870 160.5683 L 388.3490 161.4964 L 388.6187 162.6371 L 389.0136 163.8556 L 389.5504 165.0115 L 390.2157 165.9985 L 390.9884 166.7124 L 391.8380 167.0581 L 392.7578 166.9488 L 393.7423 166.3733 L 394.7775 165.3964 L 395.8057 164.1672 L 396.7374 162.8772 L 397.4830 161.7296 L 397.9974 160.8409 L 398.2688 160.2924 L 398.3114 160.1268 L 398.1353 160.3748 L 397.7290 161.0968 L 397.0925 162.3505 L 396.2500 164.1058 L 395.2513 166.2884 L 394.1600 168.8390 L 393.0687 171.5742 L 392.0688 174.2690 L 391.3318 176.3803 L 390.9096 177.6540 M 404.9381 160.1396 L 404.7564 159.9342 L 404.3905 159.7420 L 403.8052 159.7568 L 403.0177 160.2042 L 402.0717 161.1422 L 401.0753 162.4993 L 400.2135 164.0810 L 399.6934 165.6583 L 399.6806 167.0022 L 400.2359 167.9327 L 401.3174 168.3369 L 402.7825 168.1711 L 404.4400 167.4643 L 406.0600 166.3283 L 407.4290 164.9231 L 408.3501 163.4300 L 408.7121 162.0192 L 408.4868 160.8064 L 407.7575 159.8617 L 406.7060 159.2537 L 405.5917 158.9930 L 404.6429 159.0444 L 404.0266 159.2439 L 403.7380 159.4414 M 412.4976 158.1532 L 412.3622 158.4530 L 412.1337 159.1125 L 411.8400 160.1851 L 411.5709 161.5780 L 411.4087 163.1357 L 411.4452 164.6587 L 411.7434 165.9627 L 412.3326 166.8874 L 413.1978 167.3237 L 414.2776 167.1994 L 415.4699 166.5182 L 416.6612 165.3551 L 417.7419 163.8769 L 418.6105 162.3173 L 419.2422 160.9078 L 419.6354 159.8150 L 419.8164 159.1499 L 419.8279 158.9769 L 419.7126 159.3499 L 419.4859 160.3215 L 419.2154 161.8277 L 418.9748 163.6843 L 418.8406 165.5984 L 418.9321 167.1982 L 419.2985 168.1948 L 419.9065 168.4859 L 420.5237 168.3216 L 420.9742 168.0167 M 424.0167 159.8664 L 424.0215 160.1589 L 424.0327 160.7964 L 424.0407 161.8179 L 424.0267 163.1325 L 423.9897 164.5697 L 423.9341 165.9360 L 423.8829 167.0617 L 423.8638 167.8182 L 423.8851 168.1055 L 423.9427 167.8928 L 424.0637 167.1741 L 424.2728 166.0110 L 424.6225 164.5484 L 425.1797 162.9650 L 425.9910 161.4206 L 427.0661 160.0625 L 428.3889 158.9792 L 429.8748 158.2139 L 431.4297 157.8245 L 432.9267 157.8094 L 434.2445 158.1038 L 435.1859 158.4913 L 435.7119 158.8027 M 451.2411 160.2332 L 451.0528 160.0474 L 450.6857 159.7926 L 450.0907 159.5824 L 449.2625 159.5873 L 448.1945 159.9038 L 446.9778 160.5925 L 445.7659 161.6274 L 444.7507 162.9277 L 444.0837 164.3592 L 443.8534 165.7505 L 444.0886 166.9206 L 444.7669 167.7102 L 445.8300 167.9924 L 447.1824 167.6927 L 448.7037 166.7858 L 450.2676 165.3206 L 451.7577 163.4004 L 453.0679 161.1610 L 454.1449 158.7705 L 454.9500 156.4044 L 455.4855 154.2396 L 455.8019 152.4391 L 455.9453 151.1099 L 455.9620 150.3303 L 455.9001 150.1615 L 455.7565 150.6604 L 455.5360 151.8690 L 455.2819 153.7432 L 455.0200 156.1231 L 454.7864 158.7926 L 454.6205 161.5120 L 454.5662 164.0599 L 454.6737 166.2313 L 454.9749 167.8767 L 455.3281 168.8905 L 455.6119 169.3573 M 463.6683 159.8556 L 463.5327 159.5447 L 463.2383 159.0861 L 462.7278 158.6246 L 461.9743 158.3998 L 460.9814 158.5539 L 459.8221 159.1723 L 458.6436 160.2214 L 457.6260 161.5830 L 456.9260 163.0804 L 456.6364 164.5118 L 456.7918 165.7018 L 457.3570 166.5215 L 458.2688 166.8817 L 459.4521 166.7230 L 460.8115 166.0528 L 462.2256 164.9280 L 463.5479 163.4907 L 464.6381 161.9600 L 465.4037 160.5587 L 465.8338 159.4606 L 465.9846 158.7890 L 465.9406 158.5898 L 465.7614 158.8830 L 465.5051 159.6835 L 465.2295 160.9313 L 465.0065 162.4779 L 464.9249 164.1349 L 465.1134 165.6632 L 465.6047 166.8644 L 466.3592 167.6349 L 467.0983 168.0083 L 467.6191 168.1063 M 470.5303 159.8859 L 470.5194 160.1373 L 470.5925 160.6413 L 470.8281 161.4117 L 471.2571 162.3540 L 471.8571 163.3752 L 472.5908 164.3671 L 473.4064 165.2298 L 474.3242 165.8457 L 475.3431 166.1344 L 476.4059 166.0588 L 477.2838 165.7981 L 477.8470 165.5300 M 480.8193 161.8159 L 480.6964 162.0733 L 480.3802 162.6909 L 479.8032 163.7833 L 478.9395 165.3366 L 477.8234 167.2626 L 476.5749 169.4184 L 475.3439 171.6413 L 474.2830 173.7235 L 473.5027 175.4932 L 473.0378 176.7118 L 472.8295 177.3567 M 489.9627 152.2438 L 490.1196 152.6858 L 490.2943 153.5715 L 490.3828 154.8859 L 490.2938 156.5011 L 490.0649 158.2473 L 489.7825 159.9444 L 489.5533 161.2547 L 489.4268 162.0472 M 487.8426 170.7670 L 487.8569 170.7796 L 487.9155 170.7353 L 487.9941 170.6555 L 488.0682 170.5617 M 502.4089 154.2899 L 502.3688 154.3727 L 502.3088 154.7053 L 502.2222 155.4595 L 502.1082 156.7464 L 501.9465 158.5538 L 501.7471 160.7472 L 501.5480 163.1138 L 501.4141 165.3914 L 501.3962 167.3502 L 501.5224 168.8198 L 501.7875 169.7017 L 502.1972 169.9425 L 502.7686 169.5393 L 503.5128 168.5172 L 504.3999 166.9812 L 505.3555 165.1147 L 506.2715 163.1640 L 507.0571 161.3699 L 507.6713 159.9243 L 508.1120 158.9456 L 508.3859 158.4992 L 508.5118 158.6284 L 508.4954 159.3735 L 508.3501 160.7257 L 508.1278 162.5676 L 507.9188 164.6692 L 507.8046 166.7364 L 507.8526 168.4816 L 508.0898 169.7161 L 508.5185 170.3479 L 509.1319 170.3571 L 509.9281 169.7502 L 510.8537 168.5792 L 511.8414 166.9152 L 512.7990 164.9044 L 513.6467 162.7040 L 514.3294 160.4818 L 514.8367 158.3697 L 515.1616 156.4978 L 515.3488 154.9711 L 515.4347 153.8827 L 515.4628 153.2389 L 515.4652 152.9548 L 515.4630 152.8849 M 520.2695 153.0822 L 520.2058 153.3507 L 520.0532 154.0361 L 519.7836 155.2546 L 519.3962 156.9768 L 518.9166 159.0739 L 518.3926 161.3378 L 517.8998 163.5247 L 517.4968 165.4293 L 517.2308 166.8748 L 517.1173 167.7382 L 517.1668 167.9859 L 517.3882 167.6172 L 517.8253 166.6835 L 518.4954 165.3301 L 519.3893 163.7747 L 520.4221 162.2477 L 521.4844 160.9696 L 522.4731 160.0698 L 523.3345 159.6133 L 524.0463 159.6256 L 524.6043 160.1069 L 524.9738 161.0240 L 525.1290 162.3152 L 525.0679 163.8609 L 524.8350 165.5050 L 524.5237 167.0878 L 524.2406 168.4604 L 524.1033 169.4521 L 524.1782 169.9528 L 524.4618 169.9364 L 524.8002 169.6379 L 525.0673 169.3054 M 527.8919 166.5658 L 528.1666 166.5125 L 528.7289 166.3183 L 529.6027 165.9047 L 530.6866 165.2382 L 531.8441 164.3562 L 532.9094 163.3312 L 533.7540 162.2717 L 534.2960 161.2666 L 534.5086 160.3975 L 534.3813 159.7541 L 533.9142 159.4228 L 533.1154 159.5036 L 532.0551 160.0756 L 530.8750 161.1452 L 529.7762 162.6291 L 528.9533 164.3786 L 528.5702 166.1825 L 528.6842 167.8461 L 529.2963 169.1851 L 530.3495 170.0528 L 531.7690 170.3544 L 533.4214 170.0689 L 535.1642 169.2383 L 536.8094 167.9774 L 538.1981 166.4452 L 539.2141 164.8485 L 539.8464 163.3905 L 540.1383 162.2436 L 540.1733 161.5291 L 540.0366 161.3209 L 539.7759 161.6384 L 539.4059 162.4821 L 538.9734 163.7599 L 538.5461 165.2855 L 538.1847 166.8119 L 537.9556 168.1152 L 537.8713 169.0156 L 537.9117 169.4284 L 538.0807 169.3165 L 538.3951 168.6796 L 538.8647 167.5682 L 539.5092 166.1259 L 540.3287 164.5426 L 541.3032 163.0141 L 542.4120 161.6985 L 543.5895 160.6911 L 544.7479 160.0455 L 545.7971 159.8162 L 546.6428 160.0487 L 547.2126 160.7555 L 547.4810 161.9017 L 547.4476 163.3816 L 547.1953 165.0322 L 546.8547 166.6886 L 546.6005 168.1763 L 546.5651 169.3496 L 546.8063 170.1284 L 547.1537 170.5321 L 547.4551 170.6636 M 557.2433 159.8262 L 557.2801 159.9617 L 557.3403 160.2973 L 557.4155 160.9115 L 557.4869 161.8129 L 557.5552 162.9556 L 557.6163 164.2450 L 557.6925 165.5737 L 557.8037 166.7960 L 557.9823 167.7894 L 558.2566 168.4335 L 558.6757 168.6468 L 559.2742 168.3713 L 560.0874 167.6211 L 561.1130 166.4629 L 562.2832 165.0455 L 563.4606 163.5769 L 564.5075 162.2749 L 565.3013 161.2733 L 565.7874 160.6690 L 565.9600 160.4957 L 565.8541 160.7842 L 565.4896 161.5910 L 564.9141 162.9244 L 564.1981 164.7083 L 563.4243 166.8411 L 562.6595 169.1696 L 561.9939 171.5511 L 561.4647 173.8236 L 561.1072 175.7696 L 560.9440 177.2019 L 560.9177 178.0422 L 560.9510 178.3870 M 571.3682 160.7834 L 571.2880 160.4769 L 571.0616 160.1059 L 570.6194 159.8472 L 569.9115 159.9304 L 568.9553 160.4463 L 567.8634 161.4051 L 566.8138 162.7171 L 566.0076 164.2462 L 565.6228 165.7936 L 565.7137 167.1397 L 566.2612 168.1286 L 567.1896 168.6451 L 568.3649 168.6318 L 569.6351 168.0903 L 570.8623 167.0968 L 571.8795 165.7647 L 572.5903 164.2619 L 572.9821 162.7604 L 573.0950 161.4102 L 573.0365 160.3367 L 572.9361 159.6161 L 572.8597 159.2376 L 572.8297 159.1066 L 572.8361 159.1054 M 577.0057 158.7965 L 576.8373 158.5940 L 576.5535 158.4398 L 576.1674 158.5331 L 575.7313 159.0968 L 575.2738 160.1665 L 574.8480 161.6523 L 574.5433 163.3550 L 574.4747 165.0452 L 574.7368 166.4823 L 575.3696 167.4840 L 576.3527 167.9288 L 577.6036 167.7714 L 579.0081 167.0377 L 580.4444 165.8325 L 581.8026 164.3253 L 582.9772 162.7378 L 583.9114 161.2939 L 584.5815 160.1499 L 584.9951 159.3980 L 585.1790 159.0960 L 585.1653 159.2854 L 584.9734 160.0134 L 584.6527 161.2752 L 584.2770 162.9813 L 583.9359 164.9211 L 583.7104 166.8388 L 583.6113 168.3094 L 583.5982 169.1746 M 596.4841 152.8418 L 596.4783 153.1902 L 596.4407 153.9415 L 596.3406 155.1638 L 596.1423 156.7951 L 595.8269 158.7407 L 595.3888 160.8799 L 594.8673 163.0611 L 594.3342 165.1154 L 593.8765 166.8746 L 593.5616 168.1794 L 593.4337 168.9040 L 593.4929 168.9967 L 593.7651 168.4540 L 594.2776 167.3328 L 595.0544 165.7990 L 596.0804 164.0510 L 597.3076 162.2919 L 598.6443 160.7079 L 599.9982 159.4246 L 601.2820 158.5257 L 602.4216 158.0992 L 603.3456 158.1888 L 604.0046 158.7979 L 604.3678 159.8912 L 604.4203 161.3697 L 604.2104 163.1076 L 603.8162 164.9548 L 603.3868 166.6953 L 603.0719 168.1068 L 602.9785 169.0325 L 603.0427 169.4793 L 603.1702 169.5939 M 611.8429 160.4261 L 611.7443 160.0620 L 611.5109 159.6312 L 611.0707 159.3349 L 610.3953 159.4346 L 609.5040 159.9964 L 608.4642 161.0113 L 607.4026 162.3625 L 606.4771 163.9204 L 605.8015 165.4901 L 605.4644 166.8864 L 605.5040 167.9405 L 605.9202 168.5349 L 606.6756 168.5789 L 607.7051 168.0648 L 608.8848 167.0665 L 610.0748 165.7517 L 611.1365 164.3095 L 612.0052 162.9530 L 612.6425 161.8247 L 613.0646 160.9881 L 613.2823 160.4859 L 613.3182 160.3580 L 613.2034 160.6368 L 612.9772 161.3778 L 612.6683 162.5727 L 612.3430 164.0815 L 612.0450 165.7356 L 611.8763 167.2949 L 611.9175 168.5357 L 612.1830 169.3287 L 612.5197 169.7085 L 612.8011 169.7957 M 617.8071 159.3194 L 617.8147 159.6391 L 617.8174 160.3464 L 617.7913 161.4824 L 617.7191 162.9317 L 617.6031 164.5048 L 617.5088 166.0165 L 617.5042 167.2951 L 617.6698 168.2199 L 618.0544 168.6829 L 618.6716 168.6098 L 619.4860 167.9668 L 620.4532 166.8012 L 621.4864 165.2422 L 622.5026 163.4747 L 623.4288 161.6852 L 624.1992 160.0574 L 624.7642 158.7366 L 625.1234 157.8174 L 625.3029 157.3108 L 625.3628 157.1188 M 625.1375 165.6594 L 625.6948 165.3801 L 626.6188 164.8244 L 627.7736 163.9970 L 628.8805 163.0051 L 629.8030 161.9614 L 630.4571 160.9821 L 630.8329 160.1445 L 630.9215 159.5055 L 630.7164 159.1266 L 630.2158 159.0642 L 629.4281 159.3763 L 628.4296 160.1073 L 627.3502 161.2402 L 626.3580 162.7084 L 625.6022 164.3957 L 625.2954 166.1265 L 625.5439 167.6889 L 626.3579 168.9091 L 627.3202 169.6670 L 628.0909 170.0121 M 645.7703 159.2279 L 645.4751 159.0911 L 644.9039 159.0092 L 644.0287 159.1319 L 642.9237 159.6206 L 641.6792 160.5258 L 640.4137 161.7937 L 639.2780 163.2851 L 638.4366 164.8370 L 637.9984 166.2558 L 638.0172 167.3583 L 638.4899 168.0298 L 639.3579 168.1924 L 640.5465 167.8190 L 641.9542 166.9547 L 643.4545 165.7089 L 644.9077 164.2165 L 646.1779 162.6754 L 647.1677 161.2769 L 647.8491 160.1553 L 648.2191 159.4073 L 648.3038 159.0903 L 648.1444 159.2360 L 647.7716 159.8924 L 647.2564 161.0751 L 646.7078 162.6839 L 646.2297 164.5470 L 645.9250 166.4443 L 645.9420 168.1310 L 646.3381 169.4157 L 647.1108 170.2048 L 647.9378 170.5530 L 648.5620 170.6190 M 661.7981 159.3504 L 661.8594 159.4040 L 661.9295 159.6395 L 661.9386 160.1937 L 661.7808 161.1557 L 661.4019 162.5046 L 660.8274 164.1163 L 660.1577 165.7730 L 659.5334 167.2490 L 659.0668 168.3612 L 658.8080 168.9823 L 658.7769 169.0441 L 658.9799 168.5310 L 659.4233 167.4675 L 660.1079 165.9723 L 661.0073 164.2349 L 662.0734 162.4511 L 663.2539 160.8066 L 664.4773 159.4310 L 665.6666 158.4071 L 666.7527 157.8075 L 667.6658 157.7042 L 668.3566 158.1211 L 668.8167 159.0742 L 669.0254 160.4914 L 668.9727 162.2402 L 668.6959 164.1350 L 668.2511 165.9533 L 667.7465 167.4944 L 667.3124 168.6206 L 667.0486 169.2085 L 666.9995 169.2026 L 667.2037 168.6005 L 667.6667 167.4276 L 668.4045 165.8271 L 669.4087 163.9948 L 670.6379 162.1366 L 671.9995 160.4605 L 673.3873 159.1275 L 674.6863 158.2349 L 675.7932 157.8561 L 676.6400 158.0138 L 677.1756 158.6939 L 677.3782 159.8369 L 677.2593 161.3708 L 676.9014 163.1381 L 676.4219 164.9318 L 676.0085 166.3455 L 675.7538 167.1989 M 687.6624 160.7968 L 687.7122 160.4343 L 687.6505 159.9066 L 687.3778 159.3564 L 686.8142 159.0124 L 685.9867 158.9971 L 684.9559 159.4006 L 683.8016 160.2351 L 682.6095 161.4777 L 681.5068 163.0194 L 680.6403 164.6904 L 680.1348 166.3108 L 680.0850 167.6938 L 680.5072 168.6746 L 681.3453 169.1392 L 682.4756 169.0280 L 683.7604 168.3634 L 685.0270 167.2342 L 686.1279 165.7742 L 686.9531 164.1444 L 687.4261 162.5046 L 687.5405 161.0180 L 687.3947 159.8284 L 687.0936 159.0000 L 686.7905 158.5819 L 686.6278 158.5423 L 686.6458 158.7813 L 686.7650 159.1014 L 686.9065 159.3605 M 692.9432 159.3326 L 692.9164 159.3051 L 692.8580 159.3955 L 692.7571 159.7499 L 692.5928 160.4896 L 692.3395 161.6240 L 691.9849 163.0515 L 691.5455 164.6297 L 691.0826 166.1846 L 690.6743 167.5700 L 690.3871 168.6640 L 690.2744 169.3522 L 690.3677 169.5261 L 690.6863 169.1444 L 691.2523 168.2036 L 692.0609 166.8130 L 693.0822 165.1699 L 694.2627 163.4825 L 695.5226 161.9325 L 696.7704 160.6711 L 697.9241 159.7827 L 698.9108 159.3345 L 699.6640 159.3710 L 700.1293 159.8952 L 700.2717 160.8727 L 700.0886 162.2369 L 699.6373 163.8460 L 699.0336 165.4947 L 698.4072 166.9680 L 697.8816 168.0640 L 697.5422 168.6455 L 697.4435 168.6731 L 697.6281 168.1465 L 698.1308 167.1078 L 698.9637 165.7038 L 700.0833 164.1222 L 701.3788 162.5976 L 702.6901 161.3433 L 703.8671 160.4983 L 704.8062 160.1205 L 705.4851 160.2358 L 705.9052 160.8246 L 706.0999 161.8636 L 706.0784 163.2568 L 705.8969 164.8645 L 705.6350 166.4729 L 705.3999 167.8637 L 705.2482 168.8151 L 705.1940 169.3107 M 708.6270 165.2931 L 708.9455 165.3522 L 709.5747 165.4108 L 710.4983 165.3891 L 711.5828 165.1714 L 712.7015 164.7056 L 713.7189 163.9869 L 714.5665 163.0784 L 715.2119 162.0839 L 715.6209 161.1014 L 715.7718 160.1973 L 715.6548 159.4701 L 715.2444 159.0194 L 714.5397 158.9578 L 713.5727 159.3921 L 712.4232 160.3541 L 711.2241 161.7633 L 710.1714 163.4759 L 709.4205 165.3038 L 709.0525 167.0500 L 709.1683 168.5091 L 709.7831 169.5169 L 710.8269 169.9899 L 711.8953 170.0704 L 712.6848 169.9654 M 720.4222 161.5515 L 720.4698 161.4152 L 720.4779 161.3779 L 720.3759 161.6167 L 720.0971 162.3047 L 719.6340 163.4159 L 719.0471 164.8321 L 718.4336 166.3547 L 717.8772 167.7900 L 717.4609 168.9610 L 717.2384 169.7537 L 717.2303 170.0690 L 717.4681 169.8674 L 717.9789 169.1477 L 718.7412 167.9965 L 719.7288 166.5738 L 720.8791 165.0823 L 722.0981 163.7054 L 723.3102 162.5827 L 724.4504 161.7952 L 725.4716 161.4076 L 726.3590 161.4569 L 727.0862 161.9624 L 727.6061 162.9187 L 727.8667 164.2606 L 727.8430 165.8588 L 727.5829 167.5590 L 727.2253 169.1414 L 726.9307 170.4085 L 726.8254 171.2369 L 726.8699 171.6440 L 726.9756 171.7540 M 737.4773 152.6515 L 737.5221 152.7102 L 737.5409 153.0421 L 737.4683 153.8216 L 737.2349 155.1297 L 736.8281 156.8715 L 736.2780 158.9100 L 735.6705 161.0997 L 735.0958 163.3171 L 734.6361 165.4621 L 734.3373 167.4323 L 734.2183 169.1251 L 734.2698 170.4119 L 734.4431 171.1862 L 734.6780 171.4205 L 734.8844 171.3137 L 735.0106 171.0919 M 732.0453 161.3758 L 732.2836 161.2305 L 732.9054 161.0167 L 734.0073 160.7810 L 735.5763 160.5917 L 737.4356 160.4666 L 739.3414 160.3837 L 740.8448 160.3335 L 741.7570 160.3066 M 743.6926 170.9691 L 743.7205 171.0227 L 743.6887 171.1869 L 743.5426 171.5292 L 743.1462 172.1271 L 742.4530 172.9804 L 741.4832 174.0011 L 740.5609 174.8991 L 739.9006 175.4879" fill="none" stroke="black" stroke-linecap="round" stroke-width="2" /><path d="M 0.0000 -26.5933 M 286.7441 205.0695 L 286.5142 204.8161 L 286.0419 204.5086 L 285.3021 204.3173 L 284.3607 204.4362 L 283.3309 204.9174 L 282.3954 205.7347 L 281.7656 206.7871 L 281.6153 207.9514 L 282.0460 209.1224 L 283.0340 210.1973 L 284.4633 211.1248 L 286.1089 211.8861 L 287.7347 212.5090 L 289.1244 213.0308 L 290.1025 213.4767 L 290.5447 213.8703 L 290.3836 214.2264 L 289.5713 214.5517 L 288.1604 214.8559 L 286.3092 215.1380 L 284.2283 215.3572 L 282.1682 215.4986 L 280.3430 215.5436 L 278.9783 215.4696 L 278.2224 215.2645 L 278.1170 214.9444 L 278.3836 214.6196 L 278.7346 214.3829 M 300.5385 206.8084 L 300.3562 206.5560 L 299.9597 206.2163 L 299.2949 205.9362 L 298.3608 205.9276 L 297.1894 206.2877 L 295.8739 207.0552 L 294.5787 208.2037 L 293.4833 209.6373 L 292.7712 211.2312 L 292.5630 212.8354 L 292.9039 214.2948 L 293.8260 215.4480 L 295.2627 216.1980 L 297.0445 216.5050 L 298.6334 216.5134 L 299.6982 216.3980 M 310.7931 207.9121 L 310.5997 207.7107 L 310.1909 207.4261 L 309.5132 207.1570 L 308.5913 207.0945 L 307.4688 207.3704 L 306.2425 208.0603 L 305.0492 209.1558 L 304.0204 210.5631 L 303.2848 212.0876 L 302.9697 213.5444 L 303.1509 214.7322 L 303.8254 215.4864 L 304.9365 215.7046 L 306.3446 215.3555 L 307.8769 214.4662 L 309.3766 213.1795 L 310.6953 211.6705 L 311.7173 210.1559 L 312.4099 208.8283 L 312.8016 207.8437 L 312.9563 207.3080 L 312.9493 207.3013 L 312.8306 207.8408 L 312.6468 208.9340 L 312.4705 210.4875 L 312.3966 212.3249 L 312.5106 214.2214 L 312.8847 215.8843 L 313.5048 217.0517 L 314.3028 217.6274 L 315.0237 217.7523 L 315.5095 217.6516 M 317.2022 207.2840 L 317.2028 207.3289 L 317.2249 207.5767 L 317.2579 208.1700 L 317.2762 209.1799 L 317.2519 210.5183 L 317.2311 212.0163 L 317.2498 213.4342 L 317.3746 214.5767 L 317.6227 215.3006 L 317.9713 215.5195 L 318.4157 215.1873 L 319.0067 214.3215 L 319.7657 213.0071 L 320.7219 211.4195 L 321.8363 209.7762 L 323.0055 208.2862 L 324.1458 207.0939 L 325.2164 206.2893 L 326.1968 205.9258 L 327.0926 206.0232 L 327.8981 206.5926 L 328.5716 207.5977 L 329.0844 208.9429 L 329.4537 210.5382 L 329.7215 212.2267 L 329.9387 213.8274 L 330.1098 215.0394 L 330.2243 215.7465 M 345.3776 198.5018 L 345.3532 198.9989 L 345.2920 199.9998 L 345.1817 201.5417 L 345.0102 203.4960 L 344.7907 205.7521 L 344.5565 208.1419 L 344.3460 210.4803 L 344.2172 212.5549 L 344.1998 214.1740 L 344.2924 215.1915 L 344.4730 215.5420 L 344.7358 215.2183 L 345.1022 214.2600 L 345.6334 212.7757 L 346.3527 210.9557 L 347.2698 209.0237 L 348.3272 207.1894 L 349.4659 205.6374 L 350.6345 204.4972 L 351.8116 203.8631 L 352.9281 203.7851 L 353.9277 204.2789 L 354.7296 205.3076 L 355.2777 206.8070 L 355.5536 208.6532 L 355.6302 210.6740 L 355.5865 212.6550 L 355.5709 214.3309 L 355.6992 215.4881 L 356.0145 216.0345 L 356.3736 216.1285 L 356.6624 216.0068 M 359.8350 212.0820 L 360.0995 211.9914 L 360.6011 211.7285 L 361.3553 211.2300 L 362.2849 210.4710 L 363.3235 209.4850 L 364.3643 208.3426 L 365.2870 207.1344 L 365.9863 205.9571 L 366.3951 204.9196 L 366.4682 204.1085 L 366.1850 203.6235 L 365.5527 203.5518 L 364.6207 203.9674 L 363.5105 204.8946 L 362.3843 206.2719 L 361.4141 207.9588 L 360.7397 209.7815 L 360.4937 211.5535 L 360.7342 213.1239 L 361.5428 214.3167 L 362.8789 215.0121 L 364.5783 215.1800 L 366.0991 215.0297 L 367.1233 214.7892 M 371.0837 204.8638 L 371.1404 204.9855 L 371.2213 205.3795 L 371.2897 206.1825 L 371.2877 207.4292 L 371.1822 209.0309 L 370.9981 210.7905 L 370.8015 212.4681 L 370.6653 213.8675 L 370.6310 214.8543 L 370.6941 215.3516 L 370.8168 215.3355 L 370.9644 214.7754 L 371.1487 213.6925 L 371.3997 212.1976 L 371.7464 210.4620 L 372.2158 208.6772 L 372.8157 206.9990 L 373.5326 205.5249 L 374.3513 204.3179 L 375.2746 203.4784 L 376.2636 203.0711 L 377.2682 203.0919 L 378.0800 203.3323 L 378.5898 203.5962 M 378.8331 211.6891 L 379.0573 211.6483 L 379.5936 211.4572 L 380.5163 211.0446 L 381.7672 210.3659 L 383.2186 209.4609 L 384.6801 208.3783 L 385.9859 207.2149 L 387.0172 206.0587 L 387.6736 205.0166 L 387.8522 204.1806 L 387.4928 203.6611 L 386.5731 203.5401 L 385.1686 203.9006 L 383.4644 204.7744 L 381.7176 206.1163 L 380.2133 207.8178 L 379.2234 209.7370 L 378.9281 211.6846 L 379.3679 213.4857 L 380.5812 214.9403 L 382.4434 215.9021 L 384.7332 216.3229 L 386.7631 216.3711 L 388.1215 216.2513 M 405.3256 198.6667 L 405.3224 198.7681 L 405.3146 199.1245 L 405.2853 199.8829 L 405.2177 201.1100 L 405.1247 202.7767 L 405.0070 204.7918 L 404.8622 207.0151 L 404.7173 209.2988 L 404.5981 211.4791 L 404.5606 213.3846 L 404.6609 214.9060 L 404.8868 215.9263 L 405.1530 216.3947 L 405.3837 216.3607 L 405.5207 216.0751 L 405.5745 215.7660 M 401.0592 207.3674 L 401.1899 207.3158 L 401.5841 207.2557 L 402.3618 207.2065 L 403.6105 207.1885 L 405.2432 207.1873 L 407.0690 207.1742 L 408.6025 207.1523 L 409.5742 207.1295 M 416.8838 207.4776 L 416.6190 207.3536 L 416.1020 207.2439 L 415.3004 207.2776 L 414.2617 207.6145 L 413.0705 208.3322 L 411.8560 209.4226 L 410.8095 210.7899 L 410.1307 212.2824 L 409.9780 213.7074 L 410.4110 214.8771 L 411.4176 215.6456 L 412.8726 215.9256 L 414.5983 215.6874 L 416.3790 214.9664 L 418.0079 213.8443 L 419.2841 212.4459 L 420.0687 210.9230 L 420.2901 209.4304 L 419.9601 208.1048 L 419.1272 207.0790 L 417.9335 206.4252 L 416.5717 206.1583 L 415.4276 206.1485 L 414.7046 206.2424 M 440.1081 206.6409 L 439.7466 206.4233 L 439.0542 206.1889 L 437.9948 206.1109 L 436.6475 206.4063 L 435.0961 207.1578 L 433.4915 208.3589 L 432.0782 209.9328 L 431.0750 211.7209 L 430.6627 213.5500 L 430.9417 215.2473 L 431.8785 216.6749 L 433.4496 217.6929 L 435.5423 218.2364 L 437.9435 218.2915 L 440.0076 218.0789 L 441.3702 217.8147 M 450.2543 208.2000 L 449.8692 208.0365 L 449.1525 207.8989 L 448.1143 207.9561 L 446.8928 208.3812 L 445.6331 209.2274 L 444.5093 210.4337 L 443.7008 211.8602 L 443.3746 213.3362 L 443.6030 214.6872 L 444.3648 215.7462 L 445.5772 216.4123 L 447.0884 216.6021 L 448.7305 216.2914 L 450.3295 215.5069 L 451.6841 214.3234 L 452.6317 212.8842 L 453.0688 211.3685 L 452.9724 209.9420 L 452.4281 208.7417 L 451.6025 207.9092 L 450.6807 207.5109 L 449.8520 207.5652 L 449.2738 207.8506 L 448.9696 208.1544 M 456.7388 207.3913 L 456.6209 207.6644 L 456.4033 208.2946 L 456.0945 209.3506 L 455.7598 210.7653 L 455.4363 212.3865 L 455.1811 214.0063 L 455.0341 215.4337 L 454.9991 216.5158 L 455.0697 217.1368 L 455.2553 217.2455 L 455.5450 216.8241 L 455.9632 215.8992 L 456.5289 214.5804 L 457.2557 213.0330 L 458.1488 211.4430 L 459.1994 209.9991 L 460.3688 208.8309 L 461.5983 208.0264 L 462.8039 207.6513 L 463.9204 207.7541 L 464.8615 208.3551 L 465.5397 209.4291 L 465.9146 210.8983 L 465.9836 212.6280 L 465.8244 214.4309 L 465.5934 216.1183 L 465.4323 217.5082 L 465.5063 218.3337 L 465.9077 218.4325 L 466.6133 217.7765 L 467.3412 216.8306 L 467.8804 216.0220 M 473.7495 199.9644 L 473.7410 199.9652 L 473.6969 200.1979 L 473.5859 200.8608 L 473.3943 202.0765 L 473.1567 203.7823 L 472.9351 205.8378 L 472.7980 208.0539 L 472.7953 210.2554 L 472.9350 212.2927 L 473.1773 214.0300 L 473.4680 215.3691 L 473.7270 216.1783 L 473.8873 216.3902 L 473.9199 216.0284 L 473.8749 215.4342 L 473.8079 214.9055 M 470.3599 208.3219 L 470.5599 208.2316 L 471.0639 208.1041 L 471.9664 207.9599 L 473.2842 207.8328 L 474.9524 207.7247 L 476.8395 207.6358 L 478.7759 207.5524 L 480.5954 207.4778 L 482.1332 207.4220 L 483.2946 207.3855 L 484.0511 207.3955 L 484.4428 207.4988 L 484.5429 207.7686 L 484.4342 208.2837 L 484.1847 209.1197 L 483.8658 210.2413 L 483.5647 211.5513 L 483.3573 212.9094 L 483.2934 214.1332 L 483.3671 215.0562 L 483.5369 215.6003 L 483.7090 215.8110 L 483.8298 215.8183 M 483.8555 201.5981 L 483.9432 201.5539 L 484.1071 201.5453 L 484.2870 201.5697 L 484.4225 201.6247 M 490.8610 206.3580 L 490.9147 206.4579 L 490.9724 206.7820 L 490.9940 207.4309 L 490.9380 208.4300 L 490.8086 209.6889 L 490.6434 211.0658 L 490.5155 212.4099 L 490.4580 213.5728 L 490.4910 214.4385 L 490.6135 214.9267 L 490.8258 214.9707 L 491.1420 214.5421 L 491.6152 213.6518 L 492.2596 212.3841 L 493.0916 210.8907 L 494.0889 209.3514 L 495.2123 207.9394 L 496.3877 206.7847 L 497.5317 205.9478 L 498.5411 205.4773 L 499.3411 205.4081 L 499.8716 205.7545 L 500.1357 206.5379 L 500.1479 207.7317 L 499.9425 209.2379 L 499.5884 210.9079 L 499.1903 212.5718 L 498.8908 214.0141 L 498.8261 215.0734 L 499.0436 215.6579 L 499.3783 215.8571 L 499.6711 215.8351 M 505.0650 206.5681 L 505.0358 206.6186 L 504.9886 206.8823 L 504.9147 207.4835 L 504.8128 208.4697 L 504.6952 209.7444 L 504.5995 211.1450 L 504.6071 212.4841 L 504.8055 213.5842 L 505.2691 214.3020 L 506.0209 214.5444 L 507.0404 214.2674 L 508.2534 213.5009 L 509.5593 212.3265 L 510.8338 210.8772 L 511.9681 209.3424 L 512.8727 207.9400 L 513.5138 206.8329 L 513.8864 206.1346 L 514.0046 205.8741 L 513.9029 206.0497 L 513.6086 206.6635 L 513.1805 207.7200 L 512.7274 209.1205 L 512.3964 210.7351 L 512.2931 212.3551 L 512.4651 213.7819 L 512.7542 214.7862 L 513.0087 215.3386 M 516.8942 213.5538 L 517.2640 213.3538 L 518.0233 212.9297 L 519.1785 212.2474 L 520.5839 211.3327 L 522.0684 210.2341 L 523.4556 209.0453 L 524.5819 207.8726 L 525.3331 206.8207 L 525.6151 205.9994 L 525.3586 205.4936 L 524.5624 205.3974 L 523.2975 205.7816 L 521.7488 206.6576 L 520.1989 207.9413 L 518.9646 209.4861 L 518.2961 211.1117 L 518.3466 212.6591 L 519.1283 213.9864 L 520.5660 215.0121 L 522.5632 215.6232 L 524.9175 215.7715 L 527.3727 215.4873 L 529.3529 215.0361 L 530.5763 214.6373 M 542.8666 198.8504 L 542.9645 199.0883 L 543.0911 199.6239 L 543.1934 200.5373 L 543.2205 201.8402 L 543.1754 203.4995 L 543.0923 205.4606 L 543.0063 207.6265 L 542.9519 209.8771 L 542.9440 212.0298 L 542.9823 213.9061 L 543.0360 215.2262 L 543.0823 215.9453 M 538.3141 208.4341 L 538.4988 208.3595 L 539.0222 208.2440 L 540.0137 208.1094 L 541.5068 207.9873 L 543.3556 207.8841 L 545.3080 207.7835 L 546.8756 207.6958 L 547.8314 207.6335 M 551.6714 200.3030 L 551.7441 200.6171 L 551.8359 201.3053 L 551.8976 202.4381 L 551.8528 203.9640 L 551.6735 205.8064 L 551.3855 207.8012 L 551.0724 209.7763 L 550.8085 211.5436 L 550.6510 212.9488 L 550.5955 213.8864 L 550.6305 214.3234 L 550.7315 214.2348 L 550.9235 213.6439 L 551.2558 212.6023 L 551.7714 211.2554 L 552.4800 209.7638 L 553.3618 208.2978 L 554.3409 206.9792 L 555.3569 205.9020 L 556.3595 205.1323 L 557.2883 204.7692 L 558.0963 204.8509 L 558.7330 205.3926 L 559.1628 206.3588 L 559.3859 207.6712 L 559.4392 209.2075 L 559.3804 210.8317 L 559.3373 212.3445 L 559.4128 213.5714 L 559.6689 214.4021 L 559.9885 214.8386 L 560.2542 214.9884 M 562.6771 211.0152 L 563.0659 210.9223 L 563.8243 210.7047 L 564.9454 210.3103 L 566.2907 209.7310 L 567.7346 208.9851 L 569.1106 208.1302 L 570.2652 207.2390 L 571.0973 206.4021 L 571.4961 205.6777 L 571.4204 205.1364 L 570.8657 204.8511 L 569.8476 204.9111 L 568.4678 205.3797 L 566.9336 206.2784 L 565.4852 207.5493 L 564.4357 209.0764 L 564.0284 210.7087 L 564.3824 212.2954 L 565.4866 213.6846 L 567.3184 214.7126 L 569.6940 215.2861 L 572.3721 215.3827 L 574.6414 215.2061 L 576.1083 214.9711 M 590.3331 205.7551 L 590.1650 205.5876 L 589.8187 205.3586 L 589.2344 205.1725 L 588.3907 205.1741 L 587.2659 205.4474 L 585.9105 206.0478 L 584.4468 206.9650 L 583.0514 208.1613 L 581.9097 209.5695 L 581.1930 211.0866 L 580.9734 212.5971 L 581.4042 213.9552 L 582.4987 215.0161 L 584.1641 215.6889 L 585.7944 216.0042 L 586.9720 216.0796 M 599.0793 205.7878 L 598.7502 205.5590 L 598.1585 205.3319 L 597.2993 205.2686 L 596.2731 205.5585 L 595.1459 206.2320 L 594.0181 207.2595 L 593.0223 208.5657 L 592.3097 210.0444 L 591.9965 211.5354 L 592.1871 212.8724 L 592.8982 213.8824 L 594.0814 214.4384 L 595.6074 214.4831 L 597.2820 214.0101 L 598.8934 213.0788 L 600.2484 211.8117 L 601.1939 210.3640 L 601.6650 208.8972 L 601.6587 207.5612 L 601.2195 206.4861 L 600.4808 205.7553 L 599.5979 205.3865 L 598.8508 205.2857 L 598.3831 205.3177 M 605.9642 205.5997 L 605.9186 205.6099 L 605.8372 205.8064 L 605.7111 206.3613 L 605.5209 207.3985 L 605.2495 208.8693 L 604.9149 210.6091 L 604.5809 212.3479 L 604.3124 213.8289 L 604.1522 214.8788 L 604.0812 215.4140 L 604.0862 215.3979 L 604.1919 214.8234 L 604.4431 213.7169 L 604.8932 212.2065 L 605.5648 210.4918 L 606.4244 208.7990 L 607.4296 207.3080 L 608.5400 206.1310 L 609.6812 205.3362 L 610.7880 204.9989 L 611.7814 205.1619 L 612.5740 205.8442 L 613.0967 206.9877 L 613.3367 208.4907 L 613.3251 210.2016 L 613.1550 211.9760 L 612.9468 213.6439 L 612.8661 214.9950 L 613.0121 215.8342 L 613.4326 216.0721 L 613.9293 215.9157 L 614.3260 215.6361 M 618.8157 206.0379 L 618.8235 206.0532 L 618.8617 206.2576 L 618.9416 206.8132 L 619.0361 207.8120 L 619.1053 209.2039 L 619.1548 210.8504 L 619.2292 212.5454 L 619.4087 214.0781 L 619.7706 215.2952 L 620.3229 216.0499 L 621.0364 216.2586 L 621.8681 215.8830 L 622.7620 214.9175 L 623.6682 213.4526 L 624.5366 211.6825 L 625.3066 209.7999 L 625.9348 208.0413 L 626.3895 206.5658 L 626.6599 205.5478 L 626.7810 204.9986 M 626.8295 212.6916 L 627.2554 212.8447 L 628.0447 212.9962 L 629.1589 213.0149 L 630.4288 212.7593 L 631.7375 212.2133 L 632.9507 211.4139 L 633.9827 210.4298 L 634.7441 209.3599 L 635.1512 208.2873 L 635.1507 207.3044 L 634.7161 206.5300 L 633.8501 206.0865 L 632.6403 206.0711 L 631.2439 206.5729 L 629.8791 207.6040 L 628.7732 209.0814 L 628.1034 210.8522 L 627.9760 212.7098 L 628.4340 214.4139 L 629.5411 215.7160 L 631.2335 216.4638 L 633.3146 216.6147 L 635.1573 216.4154 L 636.3778 216.1350 M 639.6689 207.6038 L 639.6844 207.8489 L 639.7020 208.3953 L 639.6879 209.3026 L 639.6089 210.5275 L 639.4524 211.9624 L 639.2546 213.4305 L 639.0778 214.7524 L 638.9777 215.7549 L 638.9682 216.3046 L 639.0339 216.3366 L 639.1412 215.8295 L 639.2552 214.8000 L 639.3735 213.3623 L 639.5021 211.6738 L 639.6678 209.9210 L 639.9064 208.2894 L 640.2446 206.9086 L 640.6765 205.8409 L 641.2142 205.1108 L 641.9241 204.7189 L 642.8413 204.6281 L 643.9551 204.7723 L 644.9644 204.9975 L 645.6533 205.1871 M 655.4584 207.1048 L 655.1937 206.9096 L 654.6112 206.6056 L 653.6469 206.2854 L 652.3654 206.1052 L 650.8994 206.1632 L 649.4401 206.4957 L 648.2229 207.0911 L 647.4677 207.8850 L 647.3171 208.8264 L 647.8308 209.8638 L 648.9421 210.9511 L 650.4791 212.0475 L 652.2142 213.1416 L 653.8842 214.1742 L 655.2401 215.1244 L 656.0969 215.9344 L 656.3331 216.5755 L 655.8865 217.0336 L 654.7657 217.3293 L 653.0647 217.4603 L 650.9703 217.4618 L 648.7594 217.3295 L 646.7265 217.1158 L 645.1766 216.8141 L 644.3046 216.4316 L 644.1592 215.9668 L 644.4303 215.5463 L 644.8002 215.2445 M 664.6973 209.3305 L 664.5476 209.0291 L 664.2225 208.5938 L 663.6618 208.1402 L 662.8679 207.8796 L 661.8329 207.9376 L 660.6014 208.4051 L 659.2787 209.2970 L 658.0358 210.5451 L 657.0752 211.9702 L 656.5916 213.3537 L 656.6658 214.4893 L 657.2841 215.2005 L 658.3547 215.4044 L 659.7332 215.0719 L 661.2579 214.2428 L 662.7679 213.0388 L 664.0946 211.6387 L 665.1307 210.2435 L 665.8417 209.0477 L 666.2522 208.1577 L 666.4208 207.6337 L 666.4252 207.5355 L 666.2935 207.9034 L 666.0688 208.7875 L 665.8058 210.1550 L 665.5693 211.8527 L 665.4209 213.6632 L 665.4638 215.3148 L 665.7289 216.5508 L 666.2133 217.2382 L 666.7213 217.4705 L 667.1026 217.4381 M 676.4970 198.4067 L 676.4854 198.6631 L 676.3840 199.3188 L 676.1342 200.4941 L 675.7178 202.1823 L 675.1843 204.2935 L 674.5948 206.6832 L 674.0428 209.1877 L 673.6154 211.6407 L 673.3702 213.8351 L 673.3291 215.5931 L 673.4086 216.7435 L 673.5106 217.3197 M 669.1893 208.1155 L 669.3172 208.1528 L 669.7692 208.2539 L 670.6797 208.4254 L 672.1482 208.6536 L 674.0513 208.8940 L 676.1642 209.0973 L 677.9246 209.2293 L 679.0452 209.2935 M 683.6791 207.9829 L 683.6073 208.2767 L 683.4712 208.9122 L 683.2725 209.9412 L 683.0289 211.3002 L 682.7783 212.8946 L 682.5416 214.5858 L 682.3765 216.1455 L 682.3202 217.3315 L 682.3860 217.9683 L 682.5023 218.1412 L 682.6132 218.0555 M 684.9625 201.8484 L 684.9352 201.7385 L 684.9071 201.6303 L 684.8862 201.5558 L 684.8810 201.5470 M 694.7455 209.7256 L 694.4974 209.3951 L 693.9721 208.9683 L 693.1081 208.6373 L 691.9220 208.6558 L 690.5018 209.1082 L 689.0282 210.0096 L 687.7294 211.2447 L 686.8497 212.6723 L 686.5651 214.1139 L 686.9413 215.3905 L 687.9569 216.3438 L 689.4731 216.8739 L 691.2819 216.8983 L 693.1238 216.4239 L 694.7515 215.4923 L 695.9744 214.2171 L 696.6879 212.7440 L 696.8906 211.2469 L 696.6722 209.8673 L 696.1592 208.7685 L 695.5255 208.0351 L 694.9189 207.6907 L 694.4759 207.6188 L 694.2370 207.6778 M 702.2577 207.4489 L 702.2233 207.3092 L 702.1471 207.2556 L 701.9938 207.4567 L 701.7490 208.0830 L 701.4131 209.1226 L 701.0372 210.4699 L 700.7210 211.9523 L 700.5448 213.3915 L 700.5280 214.6099 L 700.6581 215.4838 L 700.8989 215.8999 L 701.2295 215.8000 L 701.6880 215.1664 L 702.3139 214.0524 L 703.1257 212.5979 L 704.1331 210.9962 L 705.3284 209.4314 L 706.6755 208.0737 L 708.1146 207.0325 L 709.5477 206.3860 L 710.8552 206.1947 L 711.9258 206.4546 L 712.6958 207.1344 L 713.1592 208.1779 L 713.3333 209.4798 L 713.2765 210.9117 L 713.0912 212.3548 L 712.9245 213.6408 L 712.9111 214.6524 L 713.1421 215.3214 L 713.4764 215.6638 L 713.7673 215.7715 M 728.5724 208.7995 L 728.5901 208.4514 L 728.5432 207.8727 L 728.3475 207.1458 L 727.9308 206.4665 L 727.2542 205.9675 L 726.3104 205.7659 L 725.1226 205.9321 L 723.7647 206.5102 L 722.3537 207.4818 L 721.0677 208.7697 L 720.0665 210.2459 L 719.5063 211.7356 L 719.4578 213.0528 L 719.8989 214.0347 L 720.7539 214.5510 L 721.9095 214.5288 L 723.2245 213.9788 L 724.6024 212.9475 L 725.9531 211.5619 L 727.1728 210.0002 L 728.1890 208.4710 L 728.9423 207.1673 L 729.4149 206.2336 L 729.6348 205.7363 L 729.6545 205.7193 L 729.5236 206.2020 L 729.2798 207.1978 L 728.9713 208.6470 L 728.6877 210.3904 L 728.5004 212.2154 L 728.4618 213.8924 L 728.6429 215.1387 L 729.0433 215.7771 L 729.6322 215.7580 L 730.2107 215.3756 L 730.6260 214.9490 M 734.0302 206.1969 L 733.9859 206.2801 L 733.9116 206.6059 L 733.7841 207.2879 L 733.5969 208.3557 L 733.3413 209.7150 L 733.0378 211.2040 L 732.7487 212.6295 L 732.5411 213.8337 L 732.4437 214.6673 L 732.4781 215.0373 L 732.6354 214.9049 L 732.9269 214.2600 L 733.3856 213.1687 L 734.0242 211.7911 L 734.8328 210.3145 L 735.7802 208.9451 L 736.8031 207.8470 L 737.8531 207.1001 L 738.8861 206.7571 L 739.8484 206.8503 L 740.6776 207.3694 L 741.3111 208.2818 L 741.6925 209.5121 L 741.8101 210.9589 L 741.7245 212.4746 L 741.5436 213.9029 L 741.3763 214.9714 L 741.2823 215.5888 M 752.2125 211.2652 L 752.3419 210.8559 L 752.4603 210.2138 L 752.4589 209.4552 L 752.2059 208.7942 L 751.6481 208.3393 L 750.7345 208.1751 L 749.4788 208.3519 L 747.9701 208.8934 L 746.3905 209.7760 L 744.9986 210.9281 L 744.0414 212.2327 L 743.6602 213.5396 L 743.8995 214.6936 L 744.7084 215.5217 L 745.9573 215.8829 L 747.5137 215.7059 L 749.2253 214.9548 L 750.9183 213.6567 L 752.4607 211.9017 L 753.7507 209.8136 L 754.7288 207.5488 L 755.4033 205.2852 L 755.8263 203.1861 L 756.0605 201.3914 L 756.1942 200.0203 L 756.2902 199.1770 L 756.3666 198.9358 L 756.3832 199.3445 L 756.2872 200.4397 L 756.0488 202.1768 L 755.6862 204.4315 L 755.2997 207.0878 L 755.0143 209.9088 L 754.9114 212.6347 L 754.9469 214.7377 L 755.0424 215.9937" fill="none" stroke="black" stroke-linecap="round" stroke-width="2" /><path d="M 0.0000 -48.3673 M 299.5185 237.2530 L 299.5232 237.2444 L 299.5270 237.3115 L 299.5140 237.5721 L 299.4509 238.1787 L 299.2966 239.2619 L 299.0160 240.8582 L 298.6169 242.9286 L 298.1323 245.3756 L 297.6105 248.0352 L 297.1077 250.7359 L 296.6713 253.3056 L 296.3558 255.5496 L 296.2101 257.2964 L 296.2464 258.4619 L 296.3729 259.0707 L 296.5037 259.2807 M 304.4640 236.6327 L 304.4455 237.0347 L 304.4093 237.8423 L 304.3459 239.0558 L 304.2827 240.5139 L 304.2734 242.0237 L 304.3367 243.3807 L 304.4366 244.3518 L 304.5352 244.8870 M 312.5154 239.6971 L 312.5090 239.7192 L 312.4612 239.9303 L 312.3235 240.4894 L 312.0466 241.5069 L 311.6368 242.9925 L 311.1384 244.8891 L 310.6384 247.0891 L 310.2421 249.4759 L 310.0160 251.9046 L 309.9769 254.1894 L 310.1316 256.1723 L 310.5074 257.6119 L 311.1249 258.3424 L 311.9635 258.3204 L 312.7591 257.8908 L 313.3213 257.3996 M 318.2186 241.9187 L 318.2099 241.8357 L 318.1427 241.9285 L 317.9708 242.4096 L 317.6767 243.4769 L 317.2920 245.1206 L 316.8789 247.2098 L 316.5234 249.5264 L 316.3286 251.8867 L 316.3828 254.1003 L 316.6704 255.9984 L 317.1160 257.4524 L 317.6110 258.3333 L 318.0465 258.5945 L 318.4066 258.3503 L 318.6733 257.9140 L 318.8292 257.5268 M 343.3607 250.4275 L 343.1624 250.0547 L 342.7657 249.4976 L 342.1059 248.9104 L 341.1744 248.5406 L 339.9556 248.5169 L 338.5024 248.9167 L 336.9536 249.7355 L 335.5297 250.9266 L 334.4308 252.3763 L 333.8493 253.8987 L 333.8904 255.2659 L 334.5696 256.2503 L 335.8266 256.6820 L 337.5186 256.5065 L 339.4074 255.7601 L 341.2534 254.5590 L 342.8312 253.0794 L 343.9964 251.5254 L 344.7180 250.1003 L 345.0533 248.9855 L 345.0984 248.3161 L 344.9790 248.1600 L 344.8087 248.5645 L 344.6650 249.5484 L 344.6031 251.0802 L 344.6479 253.0710 L 344.7879 255.4084 L 345.0078 257.9458 L 345.2927 260.5525 L 345.5689 263.1025 L 345.7641 265.4664 L 345.7887 267.5181 L 345.5517 269.1605 L 345.0188 270.3360 L 344.2087 271.0225 L 343.1500 271.2228 L 341.9524 270.9662 L 340.7409 270.2878 L 339.6484 269.2431 L 338.8996 267.8217 L 338.6498 266.0845 L 338.9341 264.1629 L 339.4667 262.5409 L 339.9588 261.4913 M 352.4297 247.9675 L 352.3655 248.3822 L 352.2609 249.2286 L 352.1071 250.5234 L 351.9302 252.1339 L 351.7719 253.9134 L 351.6943 255.6866 L 351.7574 257.3193 L 351.9980 258.6089 L 352.3701 259.3835 L 352.8062 259.5710 L 353.1746 259.3903 L 353.4051 259.0964 M 352.5734 242.7741 L 352.5872 242.6782 L 352.6753 242.6287 L 352.8003 242.6335 L 352.9245 242.7007 M 359.1901 247.4961 L 359.2199 247.7266 L 359.2925 248.2796 L 359.3983 249.2430 L 359.5188 250.6036 L 359.6345 252.2576 L 359.7657 254.0269 L 359.9648 255.7197 L 360.2660 257.1465 L 360.6757 258.1368 L 361.1873 258.5731 L 361.7902 258.3789 L 362.4931 257.5422 L 363.2834 256.1522 L 364.1333 254.3839 L 364.9823 252.4560 L 365.7709 250.5812 L 366.4512 248.9486 L 367.0157 247.6703 L 367.4057 246.8454 L 367.6259 246.4353 M 367.7320 255.8711 L 368.2108 255.6537 L 369.0735 255.1343 L 370.2610 254.2631 L 371.5374 253.1099 L 372.7240 251.8142 L 373.6684 250.5395 L 374.2720 249.4226 L 374.4887 248.5505 L 374.2998 248.0100 L 373.6796 247.8845 L 372.6668 248.2386 L 371.4064 249.1013 L 370.1342 250.4174 L 369.1458 252.0361 L 368.6697 253.7666 L 368.9357 255.3920 L 369.9993 256.7147 L 371.7531 257.6188 L 373.5109 258.1027 L 374.7903 258.2720 M 388.8358 249.2086 L 388.9182 249.4405 L 389.0866 249.9512 L 389.3605 250.7851 L 389.7123 251.8627 L 390.1453 253.0734 L 390.6448 254.2725 L 391.2039 255.3254 L 391.8557 256.0680 L 392.6162 256.3832 L 393.4439 256.2119 L 394.1526 255.8037 L 394.6184 255.4026 M 398.7652 249.4709 L 398.7097 249.5101 L 398.5106 249.7733 L 398.0685 250.4134 L 397.3240 251.5346 L 396.2738 253.1207 L 394.9934 255.1255 L 393.5676 257.4440 L 392.1619 259.8930 L 390.9232 262.2175 L 390.0490 263.9671 L 389.5744 264.9699 M 406.5747 249.6476 L 406.3932 249.3486 L 406.0184 248.9888 L 405.3956 248.7534 L 404.5362 248.8973 L 403.4739 249.5040 L 402.3143 250.5613 L 401.2410 251.9423 L 400.4631 253.4840 L 400.1302 254.9695 L 400.3257 256.2018 L 400.9960 256.9905 L 402.0375 257.2108 L 403.3236 256.8065 L 404.7101 255.8295 L 406.0342 254.4130 L 407.1494 252.7761 L 407.8826 251.1484 L 408.1706 249.7401 L 408.0423 248.6873 L 407.6159 248.1242 L 407.0524 248.0821 L 406.5091 248.5148 L 406.1075 249.1058 L 405.8879 249.5951 M 414.2629 248.3926 L 414.0484 248.2812 L 413.7117 248.2840 L 413.2740 248.5750 L 412.8199 249.3159 L 412.4017 250.4888 L 412.0900 251.9565 L 411.9514 253.4840 L 412.0815 254.8630 L 412.5095 255.8856 L 413.2521 256.4164 L 414.2939 256.3794 L 415.5558 255.7647 L 416.9118 254.6316 L 418.2325 253.1523 L 419.3848 251.5611 L 420.2841 250.1020 L 420.9010 248.9707 L 421.2205 248.2850 L 421.2496 248.1050 L 421.0248 248.4668 L 420.6129 249.3857 L 420.1331 250.7882 L 419.7441 252.5083 L 419.6533 254.3132 L 419.9803 255.9562 L 420.7239 257.2529 L 421.5431 258.0835 L 422.1659 258.4878 M 441.7479 249.4498 L 441.6186 249.0490 L 441.3216 248.4665 L 440.7851 247.8595 L 439.9684 247.4790 L 438.8508 247.4459 L 437.4811 247.8250 L 435.9667 248.6050 L 434.4833 249.7512 L 433.2104 251.1564 L 432.3076 252.6685 L 431.8789 254.1098 L 431.9737 255.2871 L 432.5742 256.0347 L 433.6232 256.2598 L 435.0134 255.9205 L 436.6268 255.0641 L 438.3104 253.7928 L 439.8969 252.2572 L 441.2233 250.6627 L 442.1832 249.2249 L 442.7512 248.0906 L 442.9907 247.3716 L 442.9873 247.1176 L 442.8297 247.3438 L 442.5803 248.0792 L 442.3073 249.2930 L 442.0890 250.8619 L 442.0336 252.6452 L 442.2029 254.4421 L 442.5999 256.0513 L 443.0383 257.2183 L 443.3731 257.8739 M 464.2477 248.6476 L 464.0703 248.2893 L 463.6843 247.7990 L 463.0219 247.3486 L 462.0480 247.1990 L 460.7648 247.4752 L 459.2339 248.2326 L 457.6095 249.4465 L 456.1212 251.0343 L 455.0269 252.8340 L 454.5131 254.6524 L 454.6708 256.3049 L 455.5634 257.5852 L 457.1135 258.3628 L 459.1424 258.5964 L 461.0032 258.4855 L 462.2783 258.2608 M 471.6777 249.6141 L 471.3635 249.2681 L 470.7788 248.8406 L 469.9012 248.5383 L 468.8138 248.6431 L 467.5709 249.2394 L 466.3090 250.3150 L 465.1865 251.7157 L 464.3740 253.2501 L 463.9698 254.6919 L 464.0164 255.8511 L 464.4848 256.5812 L 465.3110 256.8082 L 466.4024 256.5086 L 467.6398 255.7255 L 468.8690 254.5587 L 469.9557 253.1770 L 470.8070 251.8014 L 471.3803 250.6143 L 471.7100 249.7507 L 471.8495 249.2880 L 471.8548 249.2652 L 471.7811 249.7135 L 471.6640 250.6643 L 471.5352 252.0309 L 471.4480 253.6509 L 471.4662 255.3170 L 471.6991 256.7912 L 472.1922 257.8887 L 472.9241 258.5299 L 473.6357 258.7832 L 474.1378 258.8010 M 480.3809 241.0371 L 480.3831 241.0332 L 480.3509 241.2428 L 480.2438 241.8598 L 480.0149 243.0247 L 479.6769 244.7136 L 479.2590 246.8155 L 478.8281 249.1632 L 478.4820 251.5918 L 478.2884 253.9001 L 478.2573 255.8905 L 478.3288 257.2832 L 478.4193 258.0331 M 484.8361 239.9830 L 484.8344 240.3544 L 484.7853 241.1943 L 484.6522 242.5776 L 484.4235 244.4273 L 484.1372 246.6163 L 483.8267 248.9972 L 483.5371 251.4373 L 483.2978 253.8195 L 483.1207 255.9813 L 483.0181 257.7796 L 482.9806 259.0088 L 482.9789 259.6614 M 501.2626 248.0907 L 501.2433 248.4873 L 501.1609 249.3000 L 500.9817 250.5561 L 500.6887 252.1333 L 500.3444 253.8897 L 500.0146 255.6422 L 499.7603 257.2502 L 499.6585 258.5068 L 499.7498 259.2509 L 500.0190 259.4079 L 500.3414 259.2042 L 500.6006 258.8939 M 503.1893 240.4164 L 503.1935 240.3629 L 503.2446 240.3798 L 503.3199 240.4517 L 503.3969 240.5634 M 506.7041 247.5000 L 506.6727 247.9032 L 506.5932 248.7059 L 506.4410 249.9263 L 506.2066 251.4378 L 505.9013 253.1030 L 505.5710 254.7297 L 505.2706 256.1507 L 505.0673 257.2174 L 505.0100 257.8068 L 505.1332 257.8503 L 505.4348 257.3362 L 505.9048 256.3000 L 506.5090 254.8866 L 507.2150 253.2817 L 507.9895 251.6602 L 508.8312 250.1688 L 509.7218 248.9072 L 510.6747 247.9433 L 511.6675 247.3520 L 512.6587 247.1811 L 513.5602 247.4537 L 514.2988 248.1635 L 514.7906 249.2600 L 515.0320 250.6561 L 515.0583 252.2380 L 514.9545 253.8655 L 514.7960 255.4103 L 514.6646 256.7319 L 514.5851 257.7127 L 514.5697 258.2906 L 514.5905 258.5313 L 514.6212 258.5625 M 532.8080 239.7244 L 532.7054 239.9100 L 532.5160 240.3874 L 532.2492 241.2653 L 531.9193 242.5711 L 531.5210 244.2725 L 531.0601 246.2871 L 530.5775 248.5055 L 530.1342 250.7984 L 529.7997 252.9764 L 529.5938 254.8499 L 529.4966 256.1574 L 529.4650 256.8602 M 526.2042 247.5325 L 526.5588 247.4848 L 527.3232 247.4410 L 528.2084 247.4139 L 528.9255 247.4161 M 539.5510 239.7247 L 539.5543 240.0010 L 539.4940 240.6864 L 539.3130 241.8927 L 538.9814 243.5890 L 538.5349 245.6492 L 538.0239 247.8903 L 537.5048 250.1087 L 537.0343 252.1332 L 536.6522 253.8236 L 536.3872 255.0629 L 536.2704 255.7719 L 536.3112 255.9037 L 536.5060 255.4408 L 536.8799 254.4241 L 537.4435 252.9843 L 538.1996 251.2905 L 539.1363 249.5399 L 540.2300 247.9148 L 541.4169 246.5685 L 542.6249 245.6226 L 543.7563 245.1705 L 544.7112 245.2579 L 545.4005 245.8862 L 545.7718 247.0072 L 545.8058 248.5250 L 545.5532 250.2993 L 545.1142 252.1496 L 544.6331 253.8552 L 544.2499 255.2079 L 544.0399 256.0858 L 543.9767 256.5149 L 543.9969 256.6367 M 547.4036 252.5219 L 547.8698 252.3170 L 548.7029 251.9043 L 549.8593 251.2517 L 551.1394 250.4028 L 552.4014 249.4143 L 553.4818 248.3787 L 554.2736 247.3842 L 554.6816 246.5186 L 554.6693 245.8457 L 554.2205 245.4419 L 553.3647 245.3953 L 552.1801 245.7916 L 550.8512 246.6681 L 549.6005 247.9828 L 548.6652 249.6121 L 548.2255 251.3974 L 548.3619 253.1685 L 549.0942 254.7772 L 550.3767 256.1088 L 552.1887 257.0262 L 554.4104 257.4433 L 556.8505 257.3648 L 558.8881 257.0373 L 560.1981 256.6978 M 567.4057 246.6827 L 567.4662 246.9582 L 567.5049 247.5705 L 567.4452 248.5662 L 567.2482 249.8549 L 566.9548 251.2867 L 566.6337 252.6640 L 566.3501 253.8304 L 566.1454 254.6705 L 566.0160 255.1000 L 565.9928 255.0666 L 566.1121 254.5601 L 566.4210 253.5831 L 566.9526 252.2350 L 567.7081 250.6764 L 568.6667 249.0866 L 569.7858 247.6388 L 570.9999 246.4826 L 572.2405 245.6972 L 573.4284 245.3533 L 574.4741 245.5052 L 575.3073 246.1636 L 575.8517 247.2936 L 576.0648 248.8040 L 575.9698 250.5452 L 575.6678 252.3093 L 575.3071 253.8946 L 575.0304 255.0308 L 574.8871 255.6564 M 578.7330 252.6949 L 579.1028 252.6679 L 579.8521 252.5122 L 580.9820 252.1188 L 582.3438 251.4107 L 583.7707 250.4164 L 585.1107 249.2152 L 586.2350 247.9363 L 587.0289 246.7172 L 587.4053 245.6488 L 587.2913 244.8246 L 586.6705 244.3505 L 585.6151 244.3195 L 584.2406 244.8030 L 582.7422 245.8050 L 581.3616 247.2289 L 580.3105 248.9335 L 579.7666 250.7331 L 579.8483 252.4382 L 580.5735 253.9067 L 581.9525 254.9732 L 583.8560 255.5339 L 586.0339 255.5811 L 587.8801 255.3433 L 589.0621 255.0492 M 591.4701 246.0346 L 591.6403 246.2931 L 592.0057 246.8363 L 592.5819 247.6997 L 593.3390 248.8187 L 594.2364 250.1087 L 595.2458 251.4579 L 596.3168 252.7411 L 597.3696 253.7485 L 598.2709 254.3020 L 598.9198 254.3041 L 599.2802 253.9880 L 599.4142 253.6170 M 597.4047 249.3878 L 596.8948 249.7328 L 596.0499 250.3659 L 594.9281 251.2831 L 593.7382 252.3420 L 592.5822 253.4303 L 591.6908 254.2894 L 591.1477 254.8126 M 605.9390 239.6018 L 605.9244 239.7517 L 605.8246 240.2408 L 605.5663 241.2267 L 605.1218 242.7459 L 604.5640 244.6996 L 603.9963 246.9099 L 603.5458 249.1788 L 603.3348 251.3057 L 603.3840 253.0984 L 603.6504 254.4143 L 603.9731 255.1945 L 604.2188 255.5333 M 601.1666 247.6072 L 601.6412 247.5968 L 602.5852 247.5675 L 603.6476 247.5309 L 604.4772 247.4982 M 627.7928 249.8973 L 627.6376 249.5126 L 627.2565 248.9344 L 626.5525 248.2962 L 625.5066 247.8478 L 624.1390 247.7254 L 622.5552 248.0133 L 620.9102 248.7015 L 619.4113 249.7259 L 618.2410 250.9439 L 617.5544 252.2015 L 617.4144 253.3342 L 617.8123 254.1817 L 618.6910 254.6049 L 619.9647 254.4911 L 621.5154 253.7858 L 623.2209 252.5286 L 624.9678 250.8320 L 626.6337 248.8482 L 628.1309 246.7499 L 629.3926 244.7191 L 630.3590 242.9286 L 631.0219 241.5103 L 631.4107 240.5630 L 631.5558 240.1487 L 631.4860 240.3030 L 631.2181 241.0708 L 630.7479 242.4573 L 630.1310 244.3497 L 629.4498 246.5706 L 628.8225 248.8999 L 628.3502 251.1197 L 628.1499 253.0324 L 628.2632 254.5021 L 628.6775 255.4434 L 629.1645 255.9095 L 629.5498 256.0525 M 638.0090 249.0233 L 637.8683 248.8027 L 637.4966 248.5449 L 636.8069 248.4132 L 635.7916 248.6166 L 634.5591 249.2159 L 633.2689 250.1804 L 632.1455 251.3668 L 631.3932 252.5853 L 631.1464 253.6432 L 631.4381 254.3781 L 632.2418 254.6741 L 633.4197 254.4900 L 634.8259 253.8429 L 636.2920 252.8294 L 637.6340 251.6157 L 638.6997 250.3870 L 639.4323 249.3174 L 639.8210 248.5332 L 639.9122 248.0970 L 639.7869 248.0591 L 639.5013 248.4611 L 639.1266 249.2990 L 638.7804 250.5119 L 638.5688 251.9575 L 638.5604 253.4334 L 638.8103 254.7366 L 639.3175 255.6899 L 640.0596 256.1664 L 641.0095 256.1069 L 642.0965 255.5181 L 643.2053 254.4835 L 644.2258 253.1446 L 645.0569 251.6867 L 645.6512 250.3094 L 646.0122 249.1766 L 646.1706 248.4048 L 646.1492 248.0650 L 645.9802 248.1787 L 645.6839 248.7473 L 645.3267 249.7157 L 645.0138 250.9418 L 644.8792 252.2251 L 645.0372 253.3463 L 645.5646 254.1069 L 646.4492 254.3772 L 647.6344 254.1058 L 649.0042 253.3283 L 650.4059 252.1515 L 651.6829 250.7775 L 652.7137 249.4399 L 653.4282 248.3137 L 653.8300 247.5389 L 653.9474 247.2093 L 653.8195 247.3598 L 653.5048 248.0503 L 653.0571 249.3214 L 652.5457 251.1180 L 652.0281 253.3580 L 651.5070 255.9224 L 650.9539 258.6447 L 650.3331 261.3549 L 649.5741 263.8726 L 648.6306 266.0221 L 647.4720 267.6690 L 646.0815 268.7528 L 644.5214 269.2627 L 642.9150 269.2453 L 641.4587 268.6581 L 640.3548 267.5464 L 639.7283 266.0080 L 639.4996 264.5578 L 639.5077 263.5401 M 669.6152 250.1147 L 669.4178 249.9117 L 669.0249 249.6779 L 668.4167 249.5459 L 667.6581 249.6891 L 666.8279 250.1799 L 666.0150 251.0198 L 665.3314 252.1554 L 664.8779 253.4697 L 664.7501 254.7998 L 665.0215 255.9564 L 665.7120 256.7815 L 666.7580 257.1479 L 668.0696 256.9985 L 669.4940 256.3334 L 670.8721 255.2188 L 672.0087 253.7768 L 672.7352 252.1915 L 672.9376 250.6558 L 672.6344 249.3432 L 671.9207 248.4389 L 670.9905 248.0226 L 670.0282 248.0866 L 669.2827 248.3904 L 668.8436 248.7041 M 677.6589 250.4467 L 677.6444 250.6330 L 677.5934 251.0932 L 677.4570 251.8882 L 677.2207 252.9757 L 676.9120 254.2059 L 676.6179 255.4004 L 676.4104 256.4001 L 676.3419 257.0780 L 676.3851 257.3348 L 676.5140 257.1144 L 676.7224 256.3918 L 677.0126 255.2195 L 677.3834 253.7489 L 677.8472 252.1568 L 678.4081 250.6131 L 679.1113 249.2484 L 680.0284 248.1524 L 681.1871 247.3612 L 682.5676 246.9091 L 684.1494 246.7669 L 685.8209 246.8558 L 687.4610 247.0609 L 688.7472 247.2602 L 689.5303 247.3798 M 703.1522 239.8066 L 703.2075 239.9439 L 703.2643 240.3738 L 703.2642 241.2566 L 703.1273 242.6669 L 702.7986 244.5730 L 702.2773 246.8655 L 701.6029 249.3901 L 700.8467 251.9583 L 700.0953 254.3466 L 699.4210 256.3417 L 698.9270 257.6962 L 698.6473 258.3988 M 696.9255 248.9290 L 697.2734 248.9396 L 698.0135 248.9665 L 699.1880 249.0210 L 700.7280 249.1154 L 702.4747 249.2503 L 704.2297 249.4184 L 705.6025 249.5705 L 706.4304 249.6717 M 708.7794 248.9291 L 708.7635 249.1634 L 708.6841 249.7220 L 708.5012 250.6978 L 708.2029 252.0515 L 707.8380 253.6395 L 707.5078 255.2520 L 707.3253 256.6632 L 707.3708 257.6748 L 707.6854 258.1611 L 708.2753 258.0572 L 709.1146 257.3665 L 710.1447 256.1833 L 711.2478 254.7219 L 712.2773 253.2465 L 713.0996 251.9857 L 713.6494 251.0775 L 713.9265 250.5733 L 713.9879 250.4787 L 713.9017 250.8317 L 713.7448 251.6404 L 713.5955 252.8191 L 713.5547 254.1861 L 713.7156 255.5248 L 714.1683 256.6073 L 714.9499 257.2825 L 716.0269 257.4732 L 717.2952 257.1730 L 718.6080 256.4404 L 719.7826 255.4022 L 720.6921 254.1844 L 721.2560 252.9272 L 721.4857 251.7498 L 721.4698 250.7529 L 721.3340 249.9951 L 721.1901 249.5245 L 721.1050 249.2976 M 729.2078 250.5068 L 728.9721 250.2537 L 728.5037 249.8965 L 727.7811 249.5698 L 726.8699 249.4772 L 725.8210 249.7306 L 724.7261 250.3803 L 723.7271 251.3783 L 722.9965 252.6237 L 722.7156 253.9568 L 723.0029 255.1973 L 723.8440 256.1894 L 725.1293 256.8135 L 726.6804 256.9972 L 728.2692 256.7088 L 729.7065 255.9639 L 730.8130 254.8447 L 731.4602 253.5052 L 731.5940 252.1253 L 731.2308 250.8760 L 730.4423 249.8878 L 729.4064 249.2339 L 728.3200 248.9178 L 727.4681 248.8408 L 726.9690 248.8795 M 734.2322 259.2359 L 734.2484 259.2370 L 734.2965 259.1943 L 734.3571 259.1267 L 734.4104 259.0535 M 740.9305 254.5441 L 740.9648 254.5654 L 741.0685 254.5642 L 741.2719 254.4984 L 741.6277 254.2730 L 742.1482 253.8321 L 742.7940 253.1843 L 743.3726 252.5542 L 743.7659 252.0998" fill="none" stroke="black" stroke-linecap="round" stroke-width="2" /><path d="M 0.0000 -55.5770 M 449.5890 290.2602 L 449.2615 289.9951 L 448.6061 289.6627 L 447.5836 289.4230 L 446.2599 289.5011 L 444.6982 289.9617 L 443.0372 290.7892 L 441.4576 291.8837 L 440.1565 293.1485 L 439.3227 294.4984 L 439.1038 295.8971 L 439.5673 297.2979 L 440.6853 298.6577 L 442.3370 299.9329 L 444.3064 301.1161 L 446.3441 302.2204 L 448.1997 303.2827 L 449.6670 304.3146 L 450.6074 305.2975 L 450.9518 306.1971 L 450.6898 306.9928 L 449.8740 307.6604 L 448.5759 308.1821 L 446.9104 308.5249 L 445.0399 308.6589 L 443.1488 308.5721 L 441.4248 308.3114 L 439.9928 307.9401 L 439.0089 307.5038 L 438.5613 307.0321 L 438.6744 306.5398 L 439.0732 306.1248 L 439.4945 305.8529 M 455.4396 299.7252 L 455.3313 300.2072 L 455.1850 301.1048 L 455.0323 302.3925 L 454.9424 303.8995 L 454.9314 305.4480 L 455.0051 306.8427 L 455.1045 307.8472 L 455.1940 308.3975 M 456.1451 293.6869 L 456.1432 293.6540 L 456.1864 293.6765 L 456.2550 293.7396 L 456.3292 293.8291 M 461.1162 299.2769 L 461.1081 299.7279 L 461.0938 300.5981 L 461.0587 301.8602 L 460.9952 303.3225 L 460.9096 304.7923 L 460.8341 306.0896 L 460.7990 307.0791 L 460.8390 307.6678 L 460.9800 307.7775 L 461.2488 307.3566 L 461.6865 306.4096 L 462.3245 305.0408 L 463.1459 303.4399 L 464.1043 301.8383 L 465.1425 300.4371 L 466.2066 299.3589 L 467.2586 298.6922 L 468.2602 298.5005 L 469.1588 298.8209 L 469.9008 299.6597 L 470.4319 300.9465 L 470.7390 302.5287 L 470.8359 304.2189 L 470.8206 305.7851 L 470.8115 307.0145 L 470.9047 307.7883 L 471.0584 308.1431 L 471.2108 308.2208 M 480.2258 299.6928 L 480.0092 299.6236 L 479.5522 299.5939 L 478.8142 299.7125 L 477.8591 300.1116 L 476.8004 300.8468 L 475.7846 301.9077 L 474.9736 303.2155 L 474.5243 304.6370 L 474.5582 306.0078 L 475.1613 307.1733 L 476.3340 307.9824 L 478.0347 308.2819 L 480.0840 308.0276 L 482.2299 307.2792 L 483.9549 306.4284 L 485.0163 305.7817 M 485.2006 303.3020 L 485.4662 303.2928 L 486.0197 303.1710 L 486.8830 302.8376 L 487.9587 302.2322 L 489.0985 301.3919 L 490.1306 300.4033 L 490.9235 299.4025 L 491.3768 298.5276 L 491.4474 297.8691 L 491.1445 297.5039 L 490.4820 297.4855 L 489.5300 297.8562 L 488.4312 298.6406 L 487.3575 299.8062 L 486.5220 301.2416 L 486.1338 302.7886 L 486.3083 304.2567 L 487.0863 305.4711 L 488.4141 306.3209 L 490.1868 306.6977 L 492.2065 306.5775 L 494.2387 306.0232 L 495.8287 305.3606 L 496.7831 304.8359 M 497.3495 299.0223 L 497.3904 299.2043 L 497.4521 299.6405 L 497.5197 300.4066 L 497.5688 301.4893 L 497.6033 302.8046 L 497.6512 304.1964 L 497.7282 305.4861 L 497.8256 306.5057 L 497.9187 307.1321 L 497.9860 307.2889 L 498.0250 306.9458 L 498.0759 306.1019 L 498.1712 304.8447 L 498.3379 303.3321 L 498.6129 301.7412 L 499.0395 300.2248 L 499.6506 298.8846 L 500.4799 297.7840 L 501.5013 296.9785 L 502.6775 296.5562 L 503.9263 296.5372 L 505.1406 296.8758 L 506.0793 297.3240 L 506.6461 297.6887 M 506.7275 305.3486 L 507.0337 305.2080 L 507.6307 304.8494 L 508.4963 304.2099 L 509.4953 303.2945 L 510.4808 302.1755 L 511.3512 300.9462 L 512.0298 299.7147 L 512.4689 298.5851 L 512.6273 297.6549 L 512.4791 297.0075 L 512.0004 296.7317 L 511.2232 296.8838 L 510.2212 297.5016 L 509.1390 298.5766 L 508.1532 300.0218 L 507.4428 301.6915 L 507.1473 303.4228 L 507.3513 305.0354 L 508.0705 306.3898 L 509.3463 307.3021 L 511.0893 307.6438 L 513.1098 307.3864 L 514.8471 306.8548 L 515.9766 306.3496 M 520.9593 289.7079 L 520.9237 290.1105 L 520.8685 290.9516 L 520.7886 292.2703 L 520.6887 293.9627 L 520.5785 295.9286 L 520.4958 298.0240 L 520.4882 300.1157 L 520.6472 302.0481 L 521.0091 303.6440 L 521.5560 304.7865 L 522.0922 305.4489 L 522.4769 305.7263 M 526.4653 297.4835 L 526.4482 297.5299 L 526.4631 297.7518 L 526.5474 298.2550 L 526.7564 299.0900 L 527.1310 300.1882 L 527.6938 301.4172 L 528.4331 302.6128 L 529.3758 303.5943 L 530.4753 304.2237 L 531.6634 304.4506 L 532.6571 304.4066 L 533.2988 304.2607 M 537.4610 298.2022 L 537.4645 298.2418 L 537.3470 298.4798 L 537.0054 299.0698 L 536.3536 300.1170 L 535.3709 301.6229 L 534.0779 303.5828 L 532.5340 305.9127 L 530.8854 308.4773 L 529.3549 311.0406 L 528.1588 313.3095 L 527.4261 314.9072 L 527.1089 315.7681 M 542.2046 307.2351 L 542.1208 307.6468 L 541.8843 308.4729 L 541.4233 309.7436 L 540.7222 311.3137 L 539.8622 312.9789 L 538.9797 314.4924 L 538.2958 315.5764 L 537.9011 316.1581 M 558.9716 292.7620 L 558.8542 292.8934 L 558.6151 293.3217 L 558.2268 294.1932 L 557.7291 295.5680 L 557.1465 297.3640 L 556.5457 299.4053 L 556.0228 301.4782 L 555.7222 303.3841 L 555.7847 304.9610 L 556.3510 306.1175 L 557.4418 306.8077 L 559.0361 307.0380 L 560.9550 306.8819 L 562.9530 306.4465 L 564.5460 305.9751 L 565.5159 305.6322 M 556.0298 300.3880 L 556.3801 300.3554 L 557.1347 300.2426 L 558.3381 300.0138 L 559.8719 299.6189 L 561.5181 299.0526 L 563.0048 298.3616 L 564.0566 297.7454 L 564.6142 297.3280 M 557.0730 291.7089 L 557.6133 291.6417 L 558.6776 291.5363 L 559.8706 291.4300 L 560.7970 291.3602 M 569.9763 300.2027 L 569.9556 300.7394 L 569.9473 301.6898 L 569.9800 302.9953 L 570.0865 304.4278 L 570.2570 305.8187 L 570.4652 307.0134 L 570.6656 307.8921 L 570.8160 308.3454 L 570.9039 308.3110 L 570.9556 307.7578 L 571.0074 306.7037 L 571.1381 305.2639 L 571.4156 303.5958 L 571.8969 301.8769 L 572.6018 300.2739 L 573.5597 298.9246 L 574.7159 297.9224 L 575.9895 297.2992 L 577.0591 297.0000 L 577.7509 296.9112 M 582.3994 297.8694 L 582.3090 298.1908 L 582.1499 298.8592 L 581.9424 299.9250 L 581.7291 301.3207 L 581.5338 302.9512 L 581.3959 304.6514 L 581.3470 306.2602 L 581.3892 307.5250 L 581.5180 308.2525 L 581.6902 308.3585 L 581.8356 308.0950 L 581.9273 307.7389 M 583.5391 292.4627 L 583.6627 292.3956 L 583.9121 292.4012 L 584.1942 292.4673 L 584.4158 292.5814 M 588.1331 297.9498 L 588.1634 298.2588 L 588.1797 298.9169 L 588.1312 299.9749 L 587.9599 301.3537 L 587.6670 302.9411 L 587.3241 304.5610 L 587.0179 306.0247 L 586.8411 307.1568 L 586.8442 307.8105 L 587.0254 307.8852 L 587.3800 307.3743 L 587.9135 306.3190 L 588.6184 304.8530 L 589.4915 303.1709 L 590.5078 301.4743 L 591.6254 299.9445 L 592.7849 298.7360 L 593.9481 297.9386 L 595.0779 297.6033 L 596.1365 297.7479 L 597.0598 298.3668 L 597.7834 299.4390 L 598.2252 300.8985 L 598.3904 302.6644 L 598.3530 304.5592 L 598.2403 306.3697 L 598.1447 307.7383 L 598.1095 308.5367" fill="none" stroke="black" stroke-linecap="round" stroke-width="2" /></svg>